<svg width="88" height="285" viewBox="0 0 88 285" fill="none" xmlns="http://www.w3.org/2000/svg">
<g filter="url(#filter0_d_250_137)">
<path d="M79.3202 211.113L81.5033 209.263C81.7744 209.036 81.9972 208.756 82.1587 208.441C82.3201 208.127 82.4169 207.783 82.4433 207.43C82.4698 207.077 82.4253 206.723 82.3126 206.387C82.1999 206.052 82.0211 205.742 81.787 205.477L81.5403 205.206C81.3028 204.937 81.0132 204.719 80.689 204.565C80.3648 204.411 80.0127 204.325 79.6541 204.311C79.2954 204.297 78.9377 204.356 78.6026 204.484C78.2675 204.613 77.9619 204.808 77.7044 205.058L75.7433 206.969C75.5133 207.192 75.21 207.324 74.8901 207.34C74.5701 207.356 74.2552 207.255 74.0042 207.056C69.0707 203.023 63.4341 201.852 60.3506 204.589C56.6504 207.845 58.0565 215.342 63.3847 221.348C68.713 227.353 76.0147 229.585 79.6779 226.342C82.6997 223.654 82.2927 218.043 79.0365 212.777C78.8792 212.511 78.8214 212.198 78.8734 211.893C78.9253 211.588 79.0836 211.312 79.3202 211.113Z" fill="#CEE5F4"/>
<g style="mix-blend-mode:multiply" opacity="0.54">
<path d="M79.0365 212.79C78.8759 212.523 78.8162 212.206 78.8682 211.899C78.9202 211.591 79.0805 211.313 79.3202 211.113L81.5033 209.263C81.9398 208.896 82.2455 208.397 82.3745 207.841C82.5034 207.285 82.4488 206.702 82.2186 206.18C82.1616 206.602 82.0128 207.006 81.7826 207.364C81.5525 207.722 81.2466 208.025 80.8866 208.252L78.2225 209.929C77.9283 210.109 77.7089 210.389 77.6047 210.717C77.5004 211.046 77.5183 211.401 77.6551 211.717C80.4056 217.944 76.8164 221.434 71.4881 222.692C70.4644 222.926 74.4729 227.501 73.3999 227.625C74.4793 227.93 75.6155 227.978 76.7168 227.764C77.8181 227.55 78.8535 227.08 79.7395 226.391C82.6997 223.654 82.2926 218.043 79.0365 212.79Z" fill="#CEE5F4"/>
</g>
<path d="M76.9767 230.942L79.8505 228.389C80.1555 228.119 80.341 227.739 80.3664 227.332C80.3918 226.925 80.2551 226.525 79.9862 226.219L60.5356 204.343C60.2652 204.038 59.885 203.853 59.4782 203.827C59.0714 203.802 58.6711 203.938 58.3648 204.207L55.491 206.772C55.1847 207.041 54.7844 207.178 54.3776 207.152C53.9708 207.127 53.5907 206.941 53.3203 206.637L53.1229 206.415C52.8525 206.11 52.4723 205.924 52.0655 205.899C51.6587 205.873 51.2584 206.01 50.9521 206.279L4.69989 247.367C4.36993 247.693 4.14359 248.109 4.04924 248.563C3.95489 249.017 3.99674 249.489 4.16953 249.92C8.79475 260.414 18.9703 270.217 27.937 276.642C28.282 276.892 28.7022 277.018 29.1283 276.998C29.5543 276.978 29.9607 276.813 30.2805 276.531L76.7671 235.282C77.072 235.012 77.2575 234.632 77.2829 234.225C77.3083 233.818 77.1717 233.418 76.9027 233.112C76.6261 232.814 76.4787 232.418 76.4926 232.012C76.5064 231.605 76.6805 231.22 76.9767 230.942Z" fill="white"/>
<path d="M76.5204 230.288C68.7937 223.354 61.8756 215.568 55.898 207.08C55.2565 206.293 54.9335 205.294 54.9928 204.281C55.0522 203.267 55.4896 202.312 56.2187 201.605C56.588 201.246 57.0284 200.968 57.5115 200.788C57.9946 200.609 58.5099 200.533 59.0243 200.564C59.5387 200.595 60.0409 200.734 60.4986 200.971C60.9564 201.207 61.3597 201.537 61.6826 201.938C67.7908 210.322 74.6972 218.094 82.305 225.146C82.6651 225.514 82.9443 225.954 83.1246 226.436C83.305 226.919 83.3826 227.434 83.3524 227.948C83.3222 228.462 83.1849 228.965 82.9493 229.423C82.7137 229.881 82.385 230.285 81.9843 230.609C81.1989 231.249 80.2017 231.572 79.1899 231.512C78.178 231.453 77.2254 231.016 76.5204 230.288Z" fill="#5CA9DD"/>
<g style="mix-blend-mode:multiply" opacity="0.48">
<path d="M83.1313 226.367C82.9008 226.959 82.538 227.49 82.0706 227.92C81.2853 228.561 80.288 228.884 79.2762 228.824C78.2644 228.765 77.3117 228.328 76.6067 227.6C68.8695 220.668 61.9467 212.878 55.972 204.38C55.6661 203.939 55.4329 203.452 55.2813 202.937C55.0329 203.625 54.9592 204.363 55.0668 205.087C55.1745 205.81 55.4601 206.495 55.898 207.08C61.8756 215.568 68.7936 223.354 76.5204 230.288C77.2254 231.016 78.178 231.453 79.1899 231.512C80.2017 231.572 81.1989 231.249 81.9843 230.609C82.5719 230.093 82.9942 229.415 83.1982 228.661C83.4023 227.906 83.379 227.108 83.1313 226.367Z" fill="#5CA9DD"/>
</g>
<g style="mix-blend-mode:multiply" opacity="0.48">
<path d="M61.7813 202.345C60.4103 202.456 59.1123 203.009 58.0825 203.921C57.0527 204.832 56.3467 206.054 56.0707 207.401C56.0707 207.401 57.0328 204.811 61.7813 202.345Z" fill="#5CA9DD"/>
</g>
<g style="mix-blend-mode:multiply" opacity="0.48">
<path d="M64.0508 205.342C62.6808 205.458 61.3854 206.014 60.3582 206.928C59.331 207.841 58.6273 209.063 58.3525 210.41C58.3525 210.41 59.2775 207.808 64.0508 205.342Z" fill="#5CA9DD"/>
</g>
<g style="mix-blend-mode:multiply" opacity="0.48">
<path d="M66.3326 208.4C64.9626 208.516 63.6672 209.072 62.64 209.986C61.6128 210.9 60.9091 212.121 60.6343 213.468C60.6343 213.468 61.5593 210.866 66.3326 208.4Z" fill="#5CA9DD"/>
</g>
<g style="mix-blend-mode:multiply" opacity="0.48">
<path d="M68.824 211.15C67.4526 211.265 66.1553 211.821 65.126 212.735C64.0968 213.648 63.3907 214.87 63.1134 216.218C63.1134 216.218 64.0384 213.616 68.824 211.15Z" fill="#5CA9DD"/>
</g>
<g style="mix-blend-mode:multiply" opacity="0.48">
<path d="M81.0592 224.184C80.7801 225.531 80.0735 226.752 79.0446 227.665C78.0157 228.578 76.7194 229.135 75.3486 229.252C75.3486 229.252 78.0004 228.636 81.0592 224.184Z" fill="#5CA9DD"/>
</g>
<g style="mix-blend-mode:multiply" opacity="0.48">
<path d="M78.3458 221.57C78.0723 222.916 77.3687 224.137 76.341 225.049C75.3133 225.961 74.0171 226.514 72.6475 226.626C72.6475 226.626 75.3363 226.021 78.3458 221.57Z" fill="#5CA9DD"/>
</g>
<g style="mix-blend-mode:multiply" opacity="0.48">
<path d="M75.6324 218.956C75.3589 220.302 74.6553 221.523 73.6276 222.435C72.5998 223.347 71.3036 223.9 69.9341 224.011C69.9341 224.011 72.6229 223.407 75.6324 218.956Z" fill="#5CA9DD"/>
</g>
<g style="mix-blend-mode:multiply" opacity="0.48">
<path d="M73.1409 216.156C72.8637 217.501 72.159 218.72 71.132 219.631C70.105 220.542 68.8108 221.097 67.4426 221.212C67.4426 221.212 70.1314 220.608 73.1409 216.156Z" fill="#5CA9DD"/>
</g>
<g style="mix-blend-mode:multiply" opacity="0.48">
<path d="M71.1674 214.085C69.7975 214.201 68.502 214.757 67.4748 215.671C66.4476 216.584 65.744 217.806 65.4691 219.153C65.4691 219.153 66.3942 216.551 71.1674 214.085Z" fill="#5CA9DD"/>
</g>
<g style="mix-blend-mode:multiply" opacity="0.33">
<path d="M9.51012 243.088L4.69989 247.367C4.36993 247.693 4.14359 248.109 4.04924 248.563C3.95489 249.017 3.99674 249.489 4.16953 249.92C8.79475 260.414 18.9703 270.217 27.937 276.642C28.282 276.892 28.7022 277.018 29.1283 276.998C29.5543 276.978 29.9607 276.813 30.2805 276.531L76.7671 235.282C76.7671 235.282 41.751 265.827 9.51012 243.088Z" fill="#CEE5F4"/>
</g>
<g style="mix-blend-mode:screen" opacity="0.35">
<path d="M44.2425 221.841C40.4751 225.146 36.1974 227.819 31.5756 229.758C36.7869 221.179 44.4576 214.365 53.5916 210.2C51.1275 214.562 47.9699 218.493 44.2425 221.841Z" fill="#CEE5F4"/>
</g>
<path d="M53.1599 0V206.279C53.1599 206.279 55.861 223.345 76.8534 231.065" stroke="white" stroke-width="0.83" stroke-miterlimit="10"/>
<path d="M53.5052 205.539C53.5052 205.539 54.1713 197.499 57.9331 200.002C61.695 202.505 53.5052 205.539 53.5052 205.539Z" stroke="white" stroke-width="0.83" stroke-miterlimit="10" stroke-linecap="round"/>
<path d="M52.6665 205.847C52.6665 205.847 47.7329 198.856 45.8088 203.85C44.2054 207.993 52.6665 205.847 52.6665 205.847Z" stroke="white" stroke-width="0.83" stroke-miterlimit="10" stroke-linecap="round"/>
</g>
<defs>
<filter id="filter0_d_250_137" x="0" y="0" width="87.3587" height="285" filterUnits="userSpaceOnUse" color-interpolation-filters="sRGB">
<feFlood flood-opacity="0" result="BackgroundImageFix"/>
<feColorMatrix in="SourceAlpha" type="matrix" values="0 0 0 0 0 0 0 0 0 0 0 0 0 0 0 0 0 0 127 0" result="hardAlpha"/>
<feOffset dy="4"/>
<feGaussianBlur stdDeviation="2"/>
<feComposite in2="hardAlpha" operator="out"/>
<feColorMatrix type="matrix" values="0 0 0 0 0 0 0 0 0 0 0 0 0 0 0 0 0 0 0.25 0"/>
<feBlend mode="normal" in2="BackgroundImageFix" result="effect1_dropShadow_250_137"/>
<feBlend mode="normal" in="SourceGraphic" in2="effect1_dropShadow_250_137" result="shape"/>
</filter>
</defs>
</svg>
