<svg width="275" height="64" viewBox="0 0 275 64" fill="none" xmlns="http://www.w3.org/2000/svg">
<g filter="url(#filter0_d_253_284)">
<path d="M21.07 15.78C20.77 16.68 20.17 17.59 19.27 18.51C18.39 19.41 17.27 20.16 15.91 20.76C14.57 21.34 13.1 21.63 11.5 21.63C9.06 21.63 7.27 21.04 6.13 19.86C4.99 18.66 4.42 17.13 4.42 15.27C4.42 12.63 5.01 10.24 6.19 8.1C7.37 5.94 8.96 4.25 10.96 3.03C12.96 1.79 15.12 1.17 17.44 1.17C18.36 1.17 19.2 1.38 19.96 1.8C20.72 2.22 21.32 2.83 21.76 3.63C22.2 4.41 22.42 5.33 22.42 6.39C22.42 6.99 22.19 7.5 21.73 7.92C21.29 8.34 20.69 8.55 19.93 8.55C19.33 8.55 18.92 8.39 18.7 8.07C18.5 7.75 18.4 7.34 18.4 6.84L18.43 5.88C18.43 5.52 18.23 5.17 17.83 4.83C17.43 4.49 17.06 4.32 16.72 4.32C15.6 4.32 14.37 4.83 13.03 5.85C11.69 6.85 10.56 8.21 9.64 9.93C8.72 11.63 8.26 13.48 8.26 15.48C8.26 16.4 8.62 17.15 9.34 17.73C10.06 18.31 10.97 18.6 12.07 18.6C12.43 18.6 12.9 18.48 13.48 18.24C14.06 18 14.59 17.7 15.07 17.34C15.57 16.98 15.9 16.63 16.06 16.29C16.3 15.79 16.64 15.23 17.08 14.61C17.52 13.99 17.96 13.68 18.4 13.68C19.42 13.68 20.11 13.9 20.47 14.34C20.85 14.78 21.05 15.26 21.07 15.78ZM34.7807 19.44C34.8207 19.96 34.8907 20.43 34.9907 20.85C34.9507 20.97 34.7707 21.09 34.4507 21.21C34.1507 21.33 33.8907 21.39 33.6707 21.39C32.9507 21.39 32.4307 21.28 32.1107 21.06C31.8107 20.86 31.6607 20.55 31.6607 20.13C31.6607 19.73 31.7007 19.33 31.7807 18.93C31.3407 19.53 30.6907 20.03 29.8307 20.43C28.9907 20.81 28.3107 21 27.7907 21C26.4507 21 25.3307 20.61 24.4307 19.83C23.5507 19.05 23.1107 17.8 23.1107 16.08C23.1107 14.46 23.4907 12.94 24.2507 11.52C25.0307 10.08 26.1007 8.93 27.4607 8.07C28.8207 7.19 30.3307 6.75 31.9907 6.75C32.3107 6.75 32.7307 6.84 33.2507 7.02C33.7707 7.18 34.2907 7.47 34.8107 7.89C35.3507 8.29 35.8007 8.81 36.1607 9.45C36.3207 9.45 36.5107 9.53 36.7307 9.69C36.9507 9.85 37.0607 10.01 37.0607 10.17C37.0607 10.35 37.0307 10.53 36.9707 10.71L34.7807 19.44ZM33.4307 11.04C33.3107 10.6 33.0707 10.23 32.7107 9.93C32.3707 9.63 32.0607 9.48 31.7807 9.48C30.8607 9.48 29.9907 9.81 29.1707 10.47C28.3707 11.11 27.7207 11.91 27.2207 12.87C26.7207 13.83 26.4707 14.74 26.4707 15.6C26.4707 16.44 26.5707 17.13 26.7707 17.67C26.9707 18.21 27.3607 18.48 27.9407 18.48C28.4407 18.48 29.0107 18.33 29.6507 18.03C30.3107 17.73 30.8907 17.33 31.3907 16.83C31.9107 16.31 32.2507 15.77 32.4107 15.21L33.4307 11.04ZM41.7093 19.68C41.6893 19.8 41.4193 20.89 40.8993 22.95C40.3993 25.03 40.0493 26.34 39.8493 26.88C39.7693 27.1 39.5293 27.26 39.1293 27.36C38.7293 27.48 38.4393 27.54 38.2593 27.54C37.8193 27.54 37.4593 27.4 37.1793 27.12C36.8793 26.84 36.7193 26.42 36.6993 25.86L38.7993 17.25C39.5993 14.11 40.2593 11.43 40.7793 9.21C40.7793 9.09 40.7093 8.77 40.5693 8.25C40.5093 7.93 40.4493 7.63 40.3893 7.35C40.3293 7.07 40.2893 6.86 40.2693 6.72C40.3093 6.46 40.5093 6.25 40.8693 6.09C41.2493 5.93 41.5993 5.85 41.9193 5.85C42.3993 5.85 42.8693 6.02 43.3293 6.36C43.8093 6.7 44.0793 7.11 44.1393 7.59L44.0493 8.37C44.9493 7.25 46.0993 6.69 47.4993 6.69C48.6393 6.69 49.6193 6.97 50.4393 7.53C51.2793 8.07 51.9193 8.81 52.3593 9.75C52.7993 10.67 53.0193 11.69 53.0193 12.81C53.0193 14.31 52.7293 15.72 52.1493 17.04C51.5693 18.36 50.6993 19.43 49.5393 20.25C48.3793 21.05 46.9793 21.45 45.3393 21.45C44.8193 21.45 44.1493 21.28 43.3293 20.94C42.5093 20.58 41.9693 20.16 41.7093 19.68ZM42.6393 15.87C42.5993 16.11 42.5793 16.28 42.5793 16.38C42.5993 16.88 42.7593 17.32 43.0593 17.7C43.3793 18.08 43.7493 18.38 44.1693 18.6C44.5893 18.8 44.9393 18.9 45.2193 18.9C46.0993 18.9 46.8693 18.57 47.5293 17.91C48.2093 17.23 48.7293 16.4 49.0893 15.42C49.4493 14.42 49.6293 13.47 49.6293 12.57C49.6293 11.73 49.3993 10.99 48.9393 10.35C48.4993 9.69 47.9393 9.36 47.2593 9.36C46.4993 9.36 45.8693 9.53 45.3693 9.87C44.8893 10.19 44.3393 10.69 43.7193 11.37L42.6393 15.87ZM58.6389 17.64C58.6389 18.1 58.7189 18.42 58.8789 18.6C59.0389 18.78 59.3389 18.87 59.7789 18.87C60.3589 18.87 60.8389 18.75 61.2189 18.51C61.6189 18.25 62.0989 17.85 62.6589 17.31C62.8189 17.15 62.9989 17.07 63.1989 17.07C63.4389 17.07 63.6289 17.25 63.7689 17.61C63.9089 17.95 63.9789 18.3 63.9789 18.66C63.9789 19.16 63.7789 19.65 63.3789 20.13C62.9789 20.61 62.3989 21 61.6389 21.3C60.8789 21.6 59.9889 21.75 58.9689 21.75C57.6089 21.75 56.6389 21.44 56.0589 20.82C55.4989 20.2 55.2189 19.25 55.2189 17.97C55.2189 17.79 55.3089 17.32 55.4889 16.56C55.6689 15.8 55.8989 14.89 56.1789 13.83L57.0189 10.41L55.1889 10.56C54.9489 10.56 54.7689 10.47 54.6489 10.29C54.5289 10.11 54.4689 9.89 54.4689 9.63C54.4689 9.13 54.6489 8.63 55.0089 8.13C55.0489 8.07 55.2489 8.01 55.6089 7.95C55.9689 7.89 56.4089 7.83 56.9289 7.77L57.7389 7.68L58.4289 4.59C58.6289 4.07 58.9289 3.67 59.3289 3.39C59.7489 3.09 60.1389 2.94 60.4989 2.94C60.8989 2.94 61.2389 3.06 61.5189 3.3C61.7989 3.54 61.9489 3.82 61.9689 4.14L61.2189 7.35C61.9989 7.25 62.7189 7.17 63.3789 7.11C64.0589 7.03 64.5889 6.99 64.9689 6.99C65.7289 6.99 66.1089 7.43 66.1089 8.31C66.1089 8.65 65.9589 8.96 65.6589 9.24C65.3789 9.5 65.0689 9.66 64.7289 9.72L60.5289 10.14L58.6389 17.64ZM79.2946 20.91C79.2146 21.25 79.0346 21.48 78.7546 21.6C78.4746 21.74 78.1046 21.81 77.6446 21.81C76.2646 21.81 75.5746 21.5 75.5746 20.88L75.7546 19.74C75.0746 20.38 74.4046 20.85 73.7446 21.15C73.1046 21.47 72.3746 21.63 71.5546 21.63C70.3946 21.63 69.4146 21.32 68.6146 20.7C67.8346 20.06 67.4446 18.93 67.4446 17.31C67.4446 16.91 67.5046 16.47 67.6246 15.99L69.6346 7.98C69.7546 7.54 69.9646 7.22 70.2646 7.02C70.5846 6.8 71.0946 6.69 71.7946 6.69C72.8346 6.69 73.3546 6.98 73.3546 7.56C73.3546 7.8 73.2846 8.18 73.1446 8.7L71.1346 16.74C71.0746 16.98 71.0446 17.22 71.0446 17.46C71.0446 17.88 71.1546 18.22 71.3746 18.48C71.5946 18.74 71.9446 18.87 72.4246 18.87C73.0646 18.87 73.7846 18.69 74.5846 18.33C75.3846 17.95 76.0246 17.51 76.5046 17.01L77.2846 13.98C78.1046 10.74 78.5846 8.86 78.7246 8.34C78.8446 7.9 78.9546 7.58 79.0546 7.38C79.1746 7.16 79.3746 7 79.6546 6.9C79.9346 6.78 80.3546 6.72 80.9146 6.72C81.9746 6.72 82.5046 7.04 82.5046 7.68C82.5046 7.78 82.4746 7.91 82.4146 8.07C82.3746 8.21 82.3446 8.33 82.3246 8.43L81.1246 13.29C80.1646 17.15 79.5546 19.69 79.2946 20.91ZM87.2186 19.86C87.1986 20 87.1586 20.24 87.0986 20.58C87.0586 20.92 86.9086 21.16 86.6486 21.3C86.4086 21.44 85.9986 21.51 85.4186 21.51C84.7586 21.51 84.2686 21.44 83.9486 21.3C83.6286 21.16 83.4586 20.86 83.4386 20.4C83.5986 19.6 83.8586 18.18 84.2186 16.14C84.3386 15.46 84.5286 14.44 84.7886 13.08C85.0486 11.7 85.2486 10.7 85.3886 10.08C85.5886 8.66 85.8686 7.73 86.2286 7.29C86.5886 6.83 87.0286 6.6 87.5486 6.6C88.2486 6.6 88.7086 6.7 88.9286 6.9C89.1686 7.1 89.2986 7.36 89.3186 7.68L89.0786 9.45C89.6786 8.67 90.3886 8.03 91.2086 7.53C92.0286 7.01 92.7686 6.75 93.4286 6.75C94.3086 6.75 94.9986 6.91 95.4986 7.23C95.9986 7.53 96.2486 7.92 96.2486 8.4C96.2486 8.76 96.0286 9.04 95.5886 9.24C95.1686 9.44 94.6086 9.57 93.9086 9.63C92.8086 9.73 91.7186 10.2 90.6386 11.04C89.5586 11.88 88.7786 12.87 88.2986 14.01L87.2186 19.86ZM99.0133 3.18C99.0133 2.54 99.2533 1.94 99.7333 1.38C100.213 0.819999 100.803 0.539999 101.503 0.539999C102.223 0.539999 102.783 0.759999 103.183 1.2C103.603 1.64 103.823 2.17 103.843 2.79C103.843 3.39 103.583 3.94 103.063 4.44C102.543 4.94 101.923 5.19 101.203 5.19C100.483 5.19 99.9333 5.01 99.5533 4.65C99.1933 4.27 99.0133 3.78 99.0133 3.18ZM96.4333 18.99C96.4333 18.49 97.2633 14.89 98.9233 8.19C98.9433 7.47 99.0733 6.99 99.3133 6.75C99.5733 6.51 100.003 6.39 100.603 6.39C101.103 6.39 101.503 6.55 101.803 6.87C102.123 7.17 102.283 7.56 102.283 8.04C102.283 8.14 102.263 8.29 102.223 8.49L99.7633 19.29L99.6433 20.1C99.6233 20.42 99.5733 20.64 99.4933 20.76C99.4133 20.88 99.2133 20.96 98.8933 21C98.5933 21.06 98.0533 21.09 97.2733 21.09C96.8933 21.09 96.6333 21.02 96.4933 20.88C96.3533 20.74 96.2833 20.54 96.2833 20.28C96.2833 20.04 96.3133 19.82 96.3733 19.62C96.4133 19.3 96.4333 19.09 96.4333 18.99ZM105.894 7.29C105.834 7.23 105.804 7.16 105.804 7.08C105.804 6.88 106.024 6.72 106.464 6.6C106.904 6.46 107.514 6.39 108.294 6.39C109.014 6.39 109.544 6.58 109.884 6.96C110.224 7.32 110.424 7.76 110.484 8.28L109.944 10.23C110.364 9.65 110.954 9.1 111.714 8.58C112.474 8.04 113.244 7.61 114.024 7.29C114.804 6.97 115.444 6.81 115.944 6.81C117.004 6.81 117.774 7.01 118.254 7.41C118.734 7.79 118.974 8.4 118.974 9.24C117.794 12.32 117.014 15.64 116.634 19.2L117.054 20.67C116.814 21.13 116.474 21.49 116.034 21.75C115.614 22.03 114.994 22.17 114.174 22.17C113.694 22.17 113.344 22.01 113.124 21.69C112.904 21.37 112.794 20.97 112.794 20.49C112.794 19.15 112.984 17.68 113.364 16.08C113.764 14.46 114.224 12.81 114.744 11.13C114.944 10.49 115.044 10.16 115.044 10.14C115.044 9.86 114.884 9.72 114.564 9.72C114.124 9.72 113.454 10.03 112.554 10.65C111.674 11.27 110.764 12.32 109.824 13.8C108.884 15.26 108.124 17.18 107.544 19.56C107.504 19.68 107.454 19.9 107.394 20.22C107.334 20.54 107.174 20.77 106.914 20.91C106.654 21.03 106.234 21.09 105.654 21.09C104.994 21.09 104.504 21.02 104.184 20.88C103.884 20.74 103.734 20.44 103.734 19.98C103.794 19.7 103.884 19.36 104.004 18.96C105.164 14.3 106.054 10.71 106.674 8.19L105.894 7.29ZM128.096 20.01C126.596 21.01 125.166 21.51 123.806 21.51C123.286 21.51 122.696 21.34 122.036 21C121.396 20.66 120.846 20.2 120.386 19.62C119.926 19.04 119.696 18.4 119.696 17.7C119.696 16.58 120.066 15.15 120.806 13.41C121.546 11.67 122.586 10.15 123.926 8.85C125.286 7.55 126.866 6.9 128.666 6.9C130.186 6.9 131.456 7.15 132.476 7.65C133.496 8.15 134.006 8.87 134.006 9.81C134.006 9.87 133.966 10.08 133.886 10.44C132.866 14.86 131.956 18.54 131.156 21.48C130.696 23.2 130.056 24.52 129.236 25.44C128.436 26.38 127.526 27.01 126.506 27.33C125.506 27.65 124.326 27.81 122.966 27.81C121.986 27.81 121.096 27.55 120.296 27.03C119.516 26.51 119.126 25.77 119.126 24.81C119.126 24.13 119.556 23.79 120.416 23.79C120.616 23.79 120.846 23.94 121.106 24.24C121.426 24.58 121.756 24.84 122.096 25.02C122.456 25.22 122.976 25.32 123.656 25.32C124.756 25.32 125.706 24.86 126.506 23.94C127.306 23.02 127.836 21.71 128.096 20.01ZM128.726 17.19C128.886 16.31 129.156 15.27 129.536 14.07C129.936 12.85 130.466 11.63 131.126 10.41C131.026 10.01 130.706 9.75 130.166 9.63C129.646 9.49 129.176 9.42 128.756 9.42C128.016 9.42 127.216 9.92 126.356 10.92C125.496 11.92 124.756 13.09 124.136 14.43C123.536 15.75 123.236 16.82 123.236 17.64C123.236 18.04 123.346 18.33 123.566 18.51C123.786 18.67 124.066 18.75 124.406 18.75C124.866 18.75 125.596 18.58 126.596 18.24C127.616 17.88 128.326 17.53 128.726 17.19ZM164.866 0.959999C165.606 1.1 166.086 1.22 166.306 1.32C166.546 1.4 166.706 1.53 166.786 1.71C166.366 3.33 165.816 5.63 165.136 8.61C164.456 11.57 163.996 13.56 163.756 14.58C163.316 16.62 162.906 18.43 162.526 20.01C162.246 21.11 161.806 21.66 161.206 21.66C159.366 21.66 158.446 21.23 158.446 20.37C158.446 20.71 158.966 18.45 160.006 13.59L160.546 11.01L154.576 20.25C154.256 20.65 153.786 20.85 153.166 20.85C152.646 20.85 152.156 20.72 151.696 20.46C151.256 20.2 151.066 19.94 151.126 19.68L149.476 9.99L147.016 19.92C146.876 20.5 146.656 20.89 146.356 21.09C146.076 21.29 145.536 21.39 144.736 21.39C144.116 21.39 143.656 21.28 143.356 21.06C143.076 20.86 142.936 20.51 142.936 20.01C142.936 19.79 142.966 19.58 143.026 19.38L147.136 3.15C147.356 2.27 147.586 1.69 147.826 1.41C148.086 1.11 148.546 0.959999 149.206 0.959999C149.746 0.959999 150.226 1.02 150.646 1.14C151.066 1.26 151.286 1.44 151.306 1.68V1.74L153.706 16.65C154.566 15.27 155.976 12.99 157.936 9.81C159.916 6.63 161.466 4.15 162.586 2.37C162.786 1.87 163.006 1.55 163.246 1.41C163.506 1.25 163.796 1.14 164.116 1.08C164.456 1.02 164.706 0.979998 164.866 0.959999ZM173.068 21.63C171.108 21.63 169.678 21.24 168.778 20.46C167.878 19.68 167.428 18.64 167.428 17.34C167.428 15.44 167.898 13.68 168.838 12.06C169.798 10.44 171.068 9.16 172.648 8.22C174.248 7.26 175.968 6.78 177.808 6.78C178.928 6.78 179.868 7.1 180.628 7.74C181.388 8.36 181.768 9.28 181.768 10.5C181.768 11.2 181.538 11.78 181.078 12.24C180.638 12.68 179.998 13.08 179.158 13.44C178.318 13.78 176.958 14.27 175.078 14.91C173.378 15.47 171.998 15.94 170.938 16.32C170.858 16.62 170.818 16.93 170.818 17.25C170.818 17.81 171.048 18.24 171.508 18.54C171.988 18.84 172.658 18.99 173.518 18.99C174.058 18.99 174.678 18.88 175.378 18.66C176.078 18.44 176.518 18.16 176.698 17.82C177.378 16.58 177.998 15.96 178.558 15.96C179.378 15.96 179.928 16.12 180.208 16.44C180.508 16.74 180.668 17.08 180.688 17.46C180.448 18.1 179.978 18.75 179.278 19.41C178.578 20.05 177.688 20.58 176.608 21C175.528 21.42 174.348 21.63 173.068 21.63ZM171.778 13.56C173.758 12.92 175.388 12.33 176.668 11.79C177.948 11.23 178.588 10.68 178.588 10.14C178.588 9.9 178.458 9.71 178.198 9.57C177.938 9.41 177.658 9.33 177.358 9.33C176.758 9.33 176.068 9.56 175.288 10.02C174.528 10.48 173.818 11.04 173.158 11.7C172.498 12.36 172.038 12.98 171.778 13.56ZM185.268 8.19C185.348 7.55 185.478 7.09 185.658 6.81C185.858 6.53 186.288 6.39 186.948 6.39C187.668 6.39 188.138 6.53 188.358 6.81C188.578 7.07 188.718 7.47 188.778 8.01L188.388 10.23C189.628 8.01 191.108 6.9 192.828 6.9C193.688 6.9 194.378 7.18 194.898 7.74C195.418 8.28 195.678 9.11 195.678 10.23C195.678 10.73 195.618 11.31 195.498 11.97C196.218 10.49 196.898 9.38 197.538 8.64C198.198 7.9 198.788 7.43 199.308 7.23C199.828 7.01 200.368 6.9 200.928 6.9C203.028 6.9 204.118 7.9 204.198 9.9C204.198 10.18 204.158 10.58 204.078 11.1C203.738 12.96 203.258 15.74 202.638 19.44C202.518 20.16 202.378 20.7 202.218 21.06C202.058 21.44 201.818 21.72 201.498 21.9C201.178 22.08 200.718 22.17 200.118 22.17C199.218 22.17 198.748 21.61 198.708 20.49C198.748 20.21 198.768 19.99 198.768 19.83C198.908 18.95 199.238 17.25 199.758 14.73C200.218 12.61 200.448 11.34 200.448 10.92C200.448 10.5 200.358 10.21 200.178 10.05C199.998 9.87 199.788 9.78 199.548 9.78C199.148 9.78 198.568 10.49 197.808 11.91C197.068 13.31 196.328 14.88 195.588 16.62C194.868 18.36 194.408 19.55 194.208 20.19C194.148 20.39 193.898 20.64 193.458 20.94C193.038 21.24 192.688 21.39 192.408 21.39C191.028 21.39 190.338 21.11 190.338 20.55C190.458 20.21 190.868 18.49 191.568 15.39L192.708 10.5C192.688 10.32 192.598 10.17 192.438 10.05C192.278 9.93 192.108 9.87 191.928 9.87C191.188 9.87 190.408 10.52 189.588 11.82C188.788 13.12 188.078 14.58 187.458 16.2C186.858 17.82 186.508 18.95 186.408 19.59C186.308 20.15 186.118 20.54 185.838 20.76C185.558 20.98 185.078 21.09 184.398 21.09C183.818 21.09 183.378 21.02 183.078 20.88C182.778 20.72 182.618 20.42 182.598 19.98C182.598 19.76 182.838 18.59 183.318 16.47C183.798 14.35 184.448 11.59 185.268 8.19ZM211.805 21.3C210.045 21.3 208.675 20.7 207.695 19.5C206.715 18.3 206.225 16.77 206.225 14.91C206.225 13.35 206.555 11.92 207.215 10.62C207.895 9.32 208.835 8.3 210.035 7.56C211.255 6.8 212.645 6.42 214.205 6.42C215.945 6.42 217.115 6.57 217.715 6.87C217.895 6.95 218.055 7.08 218.195 7.26C218.335 7.42 218.405 7.58 218.405 7.74C218.405 7.94 218.355 8.15 218.255 8.37C218.175 8.59 218.045 8.76 217.865 8.88C218.325 8.92 218.715 9.15 219.035 9.57C219.355 9.97 219.595 10.44 219.755 10.98C219.915 11.52 219.995 11.99 219.995 12.39C219.995 13.81 219.645 15.21 218.945 16.59C218.265 17.97 217.305 19.1 216.065 19.98C214.825 20.86 213.405 21.3 211.805 21.3ZM212.255 18.81C212.895 18.81 213.545 18.5 214.205 17.88C214.885 17.24 215.445 16.4 215.885 15.36C216.325 14.32 216.545 13.23 216.545 12.09C216.545 11.87 216.465 11.67 216.305 11.49C216.165 11.31 215.965 11.12 215.705 10.92C215.565 10.82 215.435 10.72 215.315 10.62C215.215 10.5 215.165 10.39 215.165 10.29C215.165 10.21 215.185 10.1 215.225 9.96C215.285 9.82 215.315 9.72 215.315 9.66C215.315 9.36 214.945 9.21 214.205 9.21C213.385 9.21 212.625 9.54 211.925 10.2C211.245 10.86 210.705 11.7 210.305 12.72C209.925 13.74 209.735 14.74 209.735 15.72C209.735 16.3 209.865 16.83 210.125 17.31C210.385 17.77 210.705 18.14 211.085 18.42C211.485 18.68 211.875 18.81 212.255 18.81ZM224.76 19.86C224.74 19.98 224.69 20.22 224.61 20.58C224.55 20.92 224.38 21.16 224.1 21.3C223.84 21.44 223.42 21.51 222.84 21.51C222.18 21.51 221.7 21.44 221.4 21.3C221.1 21.16 220.95 20.86 220.95 20.4L222.39 14.67C223.19 11.37 223.72 9.27 223.98 8.37L223.23 7.47C223.17 7.41 223.14 7.34 223.14 7.26C223.14 7.06 223.36 6.9 223.8 6.78C224.24 6.64 224.85 6.57 225.63 6.57C226.33 6.57 226.8 6.77 227.04 7.17C227.28 7.55 227.43 8.05 227.49 8.67L227.28 9.45C227.92 8.67 228.66 8.03 229.5 7.53C230.36 7.01 231.12 6.75 231.78 6.75C232.64 6.75 233.31 6.9 233.79 7.2C234.27 7.5 234.51 7.89 234.51 8.37C234.51 8.79 234.36 9.23 234.06 9.69C233.78 10.13 233.42 10.51 232.98 10.83C232.54 11.13 232.11 11.3 231.69 11.34C231.29 11.34 231.02 11.29 230.88 11.19C230.74 11.09 230.67 10.94 230.67 10.74L230.85 9.75C229.25 10.19 227.8 11.25 226.5 12.93L224.76 19.86ZM236.884 3.18C236.884 2.54 237.124 1.94 237.604 1.38C238.084 0.819999 238.674 0.539999 239.374 0.539999C240.094 0.539999 240.654 0.759999 241.054 1.2C241.474 1.64 241.694 2.17 241.714 2.79C241.714 3.39 241.454 3.94 240.934 4.44C240.414 4.94 239.794 5.19 239.074 5.19C238.354 5.19 237.804 5.01 237.424 4.65C237.064 4.27 236.884 3.78 236.884 3.18ZM234.304 18.99C234.304 18.49 235.134 14.89 236.794 8.19C236.814 7.47 236.944 6.99 237.184 6.75C237.444 6.51 237.874 6.39 238.474 6.39C238.974 6.39 239.374 6.55 239.674 6.87C239.994 7.17 240.154 7.56 240.154 8.04C240.154 8.14 240.134 8.29 240.094 8.49L237.634 19.29L237.514 20.1C237.494 20.42 237.444 20.64 237.364 20.76C237.284 20.88 237.084 20.96 236.764 21C236.464 21.06 235.924 21.09 235.144 21.09C234.764 21.09 234.504 21.02 234.364 20.88C234.224 20.74 234.154 20.54 234.154 20.28C234.154 20.04 234.184 19.82 234.244 19.62C234.284 19.3 234.304 19.09 234.304 18.99ZM247.335 21.63C245.375 21.63 243.945 21.24 243.045 20.46C242.145 19.68 241.695 18.64 241.695 17.34C241.695 15.44 242.165 13.68 243.105 12.06C244.065 10.44 245.335 9.16 246.915 8.22C248.515 7.26 250.235 6.78 252.075 6.78C253.195 6.78 254.135 7.1 254.895 7.74C255.655 8.36 256.035 9.28 256.035 10.5C256.035 11.2 255.805 11.78 255.345 12.24C254.905 12.68 254.265 13.08 253.425 13.44C252.585 13.78 251.225 14.27 249.345 14.91C247.645 15.47 246.265 15.94 245.205 16.32C245.125 16.62 245.085 16.93 245.085 17.25C245.085 17.81 245.315 18.24 245.775 18.54C246.255 18.84 246.925 18.99 247.785 18.99C248.325 18.99 248.945 18.88 249.645 18.66C250.345 18.44 250.785 18.16 250.965 17.82C251.645 16.58 252.265 15.96 252.825 15.96C253.645 15.96 254.195 16.12 254.475 16.44C254.775 16.74 254.935 17.08 254.955 17.46C254.715 18.1 254.245 18.75 253.545 19.41C252.845 20.05 251.955 20.58 250.875 21C249.795 21.42 248.615 21.63 247.335 21.63ZM246.045 13.56C248.025 12.92 249.655 12.33 250.935 11.79C252.215 11.23 252.855 10.68 252.855 10.14C252.855 9.9 252.725 9.71 252.465 9.57C252.205 9.41 251.925 9.33 251.625 9.33C251.025 9.33 250.335 9.56 249.555 10.02C248.795 10.48 248.085 11.04 247.425 11.7C246.765 12.36 246.305 12.98 246.045 13.56ZM262.236 11.13C262.236 11.53 262.416 11.85 262.776 12.09C263.136 12.33 263.706 12.6 264.486 12.9C265.326 13.24 266.006 13.56 266.526 13.86C267.046 14.16 267.496 14.6 267.876 15.18C268.276 15.74 268.476 16.46 268.476 17.34C268.476 18.78 267.876 19.89 266.676 20.67C265.496 21.43 263.906 21.81 261.906 21.81C260.926 21.81 260.006 21.65 259.146 21.33C258.306 21.03 257.636 20.65 257.136 20.19C256.636 19.73 256.386 19.27 256.386 18.81C256.386 18.33 256.596 17.94 257.016 17.64C257.436 17.32 258.026 17.11 258.786 17.01C258.806 17.41 259.016 17.79 259.416 18.15C259.816 18.49 260.286 18.77 260.826 18.99C261.386 19.19 261.866 19.29 262.266 19.29C262.946 19.29 263.566 19.11 264.126 18.75C264.686 18.37 264.966 17.93 264.966 17.43C264.966 16.51 264.076 15.78 262.296 15.24C261.156 14.9 260.276 14.36 259.656 13.62C259.056 12.88 258.756 12.1 258.756 11.28C258.756 9.84 259.346 8.73 260.526 7.95C261.726 7.17 263.326 6.78 265.326 6.78C266.306 6.78 267.176 6.93 267.936 7.23C268.716 7.53 269.316 7.92 269.736 8.4C270.156 8.86 270.366 9.32 270.366 9.78C270.366 10.26 270.156 10.66 269.736 10.98C269.316 11.28 268.726 11.48 267.966 11.58C267.946 11.18 267.766 10.81 267.426 10.47C267.106 10.11 266.716 9.83 266.256 9.63C265.796 9.41 265.366 9.3 264.966 9.3C264.286 9.3 263.656 9.48 263.076 9.84C262.516 10.2 262.236 10.63 262.236 11.13ZM14.23 47.52C13.57 49.72 12.7 51.44 11.62 52.68C10.56 53.92 9.47 54.54 8.35 54.54C6.29 54.54 5.26 52.56 5.26 48.6C5.26 47.16 5.31 45.95 5.41 44.97C5.51 43.99 5.68 42.94 5.92 41.82C5.98 41.46 6.17 41.16 6.49 40.92C6.83 40.68 7.27 40.56 7.81 40.56C8.85 40.56 9.38 41.02 9.4 41.94C9.4 42.04 9.35 42.37 9.25 42.93C9.05 44.07 8.88 45.09 8.74 45.99C8.62 46.89 8.56 47.8 8.56 48.72C8.56 50.6 8.85 51.54 9.43 51.54C9.97 51.54 10.51 50.94 11.05 49.74C11.61 48.52 12.11 47.07 12.55 45.39C12.99 43.71 13.32 42.18 13.54 40.8C13.58 40.54 13.77 40.31 14.11 40.11C14.47 39.91 14.78 39.81 15.04 39.81C15.62 39.81 16.1 39.94 16.48 40.2C16.88 40.44 17.08 40.79 17.08 41.25C17.08 41.37 17.02 41.76 16.9 42.42C16.36 45.34 16.09 47.57 16.09 49.11C16.09 49.83 16.19 50.42 16.39 50.88C16.61 51.32 16.89 51.54 17.23 51.54C17.89 51.54 18.49 50.85 19.03 49.47C19.59 48.09 20.04 46.43 20.38 44.49C20.72 42.55 20.91 40.8 20.95 39.24C20.97 38.98 21.1 38.79 21.34 38.67C21.6 38.53 21.91 38.46 22.27 38.46C22.71 38.46 23.14 38.54 23.56 38.7C23.98 38.84 24.2 39 24.22 39.18C23.48 49.42 21.04 54.54 16.9 54.54C15.88 54.54 15.17 54.12 14.77 53.28C14.37 52.44 14.17 51.31 14.17 49.89C14.17 49.35 14.23 48.56 14.35 47.52H14.23ZM28.7922 36.18C28.7922 35.56 28.9822 35.01 29.3622 34.53C29.7622 34.05 30.3122 33.81 31.0122 33.81C31.7522 33.81 32.3922 34.04 32.9322 34.5C33.4922 34.96 33.7722 35.48 33.7722 36.06C33.7722 36.64 33.4922 37.14 32.9322 37.56C32.3722 37.98 31.7222 38.19 30.9822 38.19C30.2622 38.19 29.7122 38.01 29.3322 37.65C28.9722 37.27 28.7922 36.78 28.7922 36.18ZM25.9422 51.99C25.9422 51.63 26.8322 48.03 28.6122 41.19L28.4322 40.08C28.4322 39.86 28.5622 39.69 28.8222 39.57C29.0822 39.45 29.5822 39.39 30.3222 39.39C30.9022 39.39 31.3222 39.55 31.5822 39.87C31.8622 40.19 32.0022 40.57 32.0022 41.01C32.0022 41.13 31.9822 41.29 31.9422 41.49L29.2722 52.29L29.4522 53.4C29.4522 53.62 29.3222 53.79 29.0622 53.91C28.8022 54.03 28.3022 54.09 27.5622 54.09C26.9022 54.09 26.4722 53.9 26.2722 53.52C26.0722 53.12 25.9622 52.61 25.9422 51.99ZM38.0432 50.7C38.0432 51.16 38.1632 51.53 38.4032 51.81C38.6432 52.07 38.9832 52.2 39.4232 52.2C40.0232 52.2 40.5132 52.03 40.8932 51.69C41.2932 51.33 41.7132 50.83 42.1532 50.19C42.4732 49.73 42.7332 49.4 42.9332 49.2C43.1332 49 43.3632 48.9 43.6232 48.9C44.1432 48.9 44.5132 48.97 44.7332 49.11C44.9532 49.23 45.0632 49.49 45.0632 49.89C45.0632 50.07 45.0432 50.29 45.0032 50.55C44.9632 50.79 44.9132 50.97 44.8532 51.09C44.3732 52.11 43.5832 52.99 42.4832 53.73C41.4032 54.47 40.1732 54.84 38.7932 54.84C37.4132 54.84 36.3732 54.51 35.6732 53.85C34.9732 53.17 34.6232 52.21 34.6232 50.97C34.6232 50.79 34.7132 50.32 34.8932 49.56C35.0732 48.8 35.3032 47.89 35.5832 46.83L36.4232 43.41L34.5932 43.56C34.3532 43.56 34.1732 43.47 34.0532 43.29C33.9332 43.11 33.8732 42.89 33.8732 42.63C33.8732 42.13 34.0532 41.63 34.4132 41.13C34.4532 41.07 34.6532 41.01 35.0132 40.95C35.3732 40.89 35.8132 40.83 36.3332 40.77L37.1432 40.68L38.1632 36.3C38.3632 35.78 38.6632 35.38 39.0632 35.1C39.4832 34.8 39.8732 34.65 40.2332 34.65C40.6332 34.65 40.9732 34.77 41.2532 35.01C41.5332 35.25 41.6832 35.53 41.7032 35.85L40.6232 40.35C41.4032 40.25 42.1232 40.17 42.7832 40.11C43.4632 40.03 43.9932 39.99 44.3732 39.99C45.1332 39.99 45.5132 40.43 45.5132 41.31C45.5132 41.65 45.3632 41.96 45.0632 42.24C44.7832 42.5 44.4732 42.66 44.1332 42.72L39.9332 43.14L38.0432 50.7ZM51.3189 44.1C51.7789 43.2 52.3589 42.43 53.0589 41.79C53.7589 41.13 54.4689 40.64 55.1889 40.32C55.9289 39.98 56.5589 39.81 57.0789 39.81C58.3189 39.81 59.2889 40.12 59.9889 40.74C60.7089 41.36 61.0689 42.11 61.0689 42.99L58.8189 52.2V52.41C58.8189 53.45 58.6589 54.17 58.3389 54.57C58.0389 54.97 57.4589 55.17 56.5989 55.17C56.1389 55.17 55.7489 55.02 55.4289 54.72C55.1289 54.42 54.9789 54.08 54.9789 53.7C54.9789 53.58 54.9889 53.49 55.0089 53.43C55.5289 51.23 55.9589 49.44 56.2989 48.06C56.4989 47.2 56.7389 46.17 57.0189 44.97C57.3189 43.77 57.4689 43.13 57.4689 43.05C57.4689 42.77 57.3089 42.63 56.9889 42.63C56.5289 42.63 55.8889 42.84 55.0689 43.26C54.2489 43.66 53.3589 44.43 52.3989 45.57C51.4589 46.71 50.6589 48.27 49.9989 50.25C49.7189 51.11 49.5089 51.86 49.3689 52.5L49.3389 52.62C49.2589 52.98 49.1689 53.26 49.0689 53.46C48.9689 53.64 48.7789 53.79 48.4989 53.91C48.2389 54.03 47.8289 54.09 47.2689 54.09C45.9889 54.09 45.3489 53.64 45.3489 52.74C45.4089 52.46 45.5389 52.06 45.7389 51.54C45.9189 51.14 46.0689 50.71 46.1889 50.25L50.8389 33.18C50.9189 32.9 51.1389 32.67 51.4989 32.49C51.8589 32.29 52.2189 32.19 52.5789 32.19C53.1789 32.19 53.5989 32.35 53.8389 32.67C54.0989 32.99 54.2489 33.43 54.2889 33.99L51.3189 44.1ZM84.2643 38.19C84.1643 37.87 83.7743 37.59 83.0943 37.35C82.4343 37.09 81.5643 36.96 80.4843 36.96C79.3043 36.96 78.3843 37.29 77.7243 37.95C77.0643 38.61 76.7343 39.44 76.7343 40.44C76.7343 41.06 76.9543 41.54 77.3943 41.88C77.8543 42.2 78.5543 42.56 79.4943 42.96L80.5743 43.41L81.4743 43.83C82.5543 44.31 83.4043 44.75 84.0243 45.15C84.6643 45.53 85.2043 46.06 85.6443 46.74C86.0843 47.42 86.3043 48.29 86.3043 49.35C86.3043 50.49 85.9243 51.48 85.1643 52.32C84.4243 53.14 83.3843 53.76 82.0443 54.18C80.7043 54.62 79.1443 54.84 77.3643 54.84C76.0443 54.84 74.8043 54.63 73.6443 54.21C72.5043 53.81 71.5943 53.3 70.9143 52.68C70.2543 52.06 69.9243 51.45 69.9243 50.85C69.9243 50.27 70.1743 49.8 70.6743 49.44C71.1743 49.06 71.8843 48.8 72.8043 48.66C72.9043 49.24 73.2443 49.76 73.8243 50.22C74.4043 50.68 75.0743 51.05 75.8343 51.33C76.6143 51.59 77.2943 51.72 77.8743 51.72C78.9343 51.72 79.8743 51.51 80.6943 51.09C81.5343 50.67 81.9543 50.09 81.9543 49.35C81.9543 48.73 81.6543 48.22 81.0543 47.82C80.4743 47.4 79.5943 46.95 78.4143 46.47L76.8243 45.75C75.5243 45.11 74.4943 44.39 73.7343 43.59C72.9743 42.79 72.5943 41.73 72.5943 40.41C72.5943 38.95 73.0043 37.77 73.8243 36.87C74.6443 35.95 75.6343 35.29 76.7943 34.89C77.9743 34.49 79.1243 34.29 80.2443 34.29C82.0243 34.29 83.4843 34.52 84.6243 34.98C85.7843 35.44 86.6243 36.02 87.1443 36.72C87.6643 37.42 87.9243 38.14 87.9243 38.88C87.9243 39.3 87.8143 39.81 87.5943 40.41C87.3943 41.01 87.0843 41.53 86.6643 41.97C86.2643 42.41 85.7743 42.63 85.1943 42.63C84.1943 42.63 83.6943 42.11 83.6943 41.07C83.7343 40.75 83.8243 40.23 83.9643 39.51C84.1043 38.77 84.2043 38.33 84.2643 38.19ZM91.3422 41.19C91.4222 40.55 91.5522 40.09 91.7322 39.81C91.9322 39.53 92.3622 39.39 93.0222 39.39C93.7422 39.39 94.2122 39.53 94.4322 39.81C94.6522 40.07 94.7922 40.47 94.8522 41.01L94.4622 43.23C95.7022 41.01 97.1822 39.9 98.9022 39.9C99.7622 39.9 100.452 40.18 100.972 40.74C101.492 41.28 101.752 42.11 101.752 43.23C101.752 43.73 101.692 44.31 101.572 44.97C102.292 43.49 102.972 42.38 103.612 41.64C104.272 40.9 104.862 40.43 105.382 40.23C105.902 40.01 106.442 39.9 107.002 39.9C109.102 39.9 110.192 40.9 110.272 42.9C110.272 43.18 110.232 43.58 110.152 44.1C109.812 45.96 109.332 48.74 108.712 52.44C108.592 53.16 108.452 53.7 108.292 54.06C108.132 54.44 107.892 54.72 107.572 54.9C107.252 55.08 106.792 55.17 106.192 55.17C105.292 55.17 104.822 54.61 104.782 53.49C104.822 53.21 104.842 52.99 104.842 52.83C104.982 51.95 105.312 50.25 105.832 47.73C106.292 45.61 106.522 44.34 106.522 43.92C106.522 43.5 106.432 43.21 106.252 43.05C106.072 42.87 105.862 42.78 105.622 42.78C105.222 42.78 104.642 43.49 103.882 44.91C103.142 46.31 102.402 47.88 101.662 49.62C100.942 51.36 100.482 52.55 100.282 53.19C100.222 53.39 99.9722 53.64 99.5322 53.94C99.1122 54.24 98.7622 54.39 98.4822 54.39C97.1022 54.39 96.4122 54.11 96.4122 53.55C96.5322 53.21 96.9422 51.49 97.6422 48.39L98.7822 43.5C98.7622 43.32 98.6722 43.17 98.5122 43.05C98.3522 42.93 98.1822 42.87 98.0022 42.87C97.2622 42.87 96.4822 43.52 95.6622 44.82C94.8622 46.12 94.1522 47.58 93.5322 49.2C92.9322 50.82 92.5822 51.95 92.4822 52.59C92.3822 53.15 92.1922 53.54 91.9122 53.76C91.6322 53.98 91.1522 54.09 90.4722 54.09C89.8922 54.09 89.4522 54.02 89.1522 53.88C88.8522 53.72 88.6922 53.42 88.6722 52.98C88.6722 52.76 88.9122 51.59 89.3922 49.47C89.8722 47.35 90.5222 44.59 91.3422 41.19ZM115.42 36.18C115.42 35.54 115.66 34.94 116.14 34.38C116.62 33.82 117.21 33.54 117.91 33.54C118.63 33.54 119.19 33.76 119.59 34.2C120.01 34.64 120.23 35.17 120.25 35.79C120.25 36.39 119.99 36.94 119.47 37.44C118.95 37.94 118.33 38.19 117.61 38.19C116.89 38.19 116.34 38.01 115.96 37.65C115.6 37.27 115.42 36.78 115.42 36.18ZM112.84 51.99C112.84 51.49 113.67 47.89 115.33 41.19C115.35 40.47 115.48 39.99 115.72 39.75C115.98 39.51 116.41 39.39 117.01 39.39C117.51 39.39 117.91 39.55 118.21 39.87C118.53 40.17 118.69 40.56 118.69 41.04C118.69 41.14 118.67 41.29 118.63 41.49L116.17 52.29L116.05 53.1C116.03 53.42 115.98 53.64 115.9 53.76C115.82 53.88 115.62 53.96 115.3 54C115 54.06 114.46 54.09 113.68 54.09C113.3 54.09 113.04 54.02 112.9 53.88C112.76 53.74 112.69 53.54 112.69 53.28C112.69 53.04 112.72 52.82 112.78 52.62C112.82 52.3 112.84 52.09 112.84 51.99ZM127.641 37.68C125.381 47.18 124.051 52.61 123.651 53.97C123.611 54.09 123.401 54.24 123.021 54.42C122.661 54.62 122.411 54.72 122.271 54.72C121.711 54.72 121.171 54.58 120.651 54.3C120.131 54.02 119.851 53.57 119.811 52.95C119.831 52.91 119.931 52.7 120.111 52.32C120.291 51.94 120.471 51.4 120.651 50.7C121.111 48.98 121.631 46.94 122.211 44.58C122.811 42.22 123.211 40.64 123.411 39.84L124.821 34.11C124.801 33.95 124.791 33.12 124.791 31.62C124.851 31.36 125.071 31.15 125.451 30.99C125.851 30.83 126.211 30.75 126.531 30.75C127.031 30.75 127.541 30.92 128.061 31.26C128.601 31.6 128.881 32.01 128.901 32.49L127.641 37.68ZM134.425 54.63C132.465 54.63 131.035 54.24 130.135 53.46C129.235 52.68 128.785 51.64 128.785 50.34C128.785 48.44 129.255 46.68 130.195 45.06C131.155 43.44 132.425 42.16 134.005 41.22C135.605 40.26 137.325 39.78 139.165 39.78C140.285 39.78 141.225 40.1 141.985 40.74C142.745 41.36 143.125 42.28 143.125 43.5C143.125 44.2 142.895 44.78 142.435 45.24C141.995 45.68 141.355 46.08 140.515 46.44C139.675 46.78 138.315 47.27 136.435 47.91C134.735 48.47 133.355 48.94 132.295 49.32C132.215 49.62 132.175 49.93 132.175 50.25C132.175 50.81 132.405 51.24 132.865 51.54C133.345 51.84 134.015 51.99 134.875 51.99C135.415 51.99 136.035 51.88 136.735 51.66C137.435 51.44 137.875 51.16 138.055 50.82C138.735 49.58 139.355 48.96 139.915 48.96C140.735 48.96 141.285 49.12 141.565 49.44C141.865 49.74 142.025 50.08 142.045 50.46C141.805 51.1 141.335 51.75 140.635 52.41C139.935 53.05 139.045 53.58 137.965 54C136.885 54.42 135.705 54.63 134.425 54.63ZM133.135 46.56C135.115 45.92 136.745 45.33 138.025 44.79C139.305 44.23 139.945 43.68 139.945 43.14C139.945 42.9 139.815 42.71 139.555 42.57C139.295 42.41 139.015 42.33 138.715 42.33C138.115 42.33 137.425 42.56 136.645 43.02C135.885 43.48 135.175 44.04 134.515 44.7C133.855 45.36 133.395 45.98 133.135 46.56Z" fill="white"/>
</g>
<defs>
<filter id="filter0_d_253_284" x="0.420013" y="0.540039" width="273.946" height="62.6299" filterUnits="userSpaceOnUse" color-interpolation-filters="sRGB">
<feFlood flood-opacity="0" result="BackgroundImageFix"/>
<feColorMatrix in="SourceAlpha" type="matrix" values="0 0 0 0 0 0 0 0 0 0 0 0 0 0 0 0 0 0 127 0" result="hardAlpha"/>
<feOffset dy="4"/>
<feGaussianBlur stdDeviation="2"/>
<feComposite in2="hardAlpha" operator="out"/>
<feColorMatrix type="matrix" values="0 0 0 0 0 0 0 0 0 0 0 0 0 0 0 0 0 0 0.1 0"/>
<feBlend mode="normal" in2="BackgroundImageFix" result="effect1_dropShadow_253_284"/>
<feBlend mode="normal" in="SourceGraphic" in2="effect1_dropShadow_253_284" result="shape"/>
</filter>
</defs>
</svg>
