<svg width="97" height="224" viewBox="0 0 97 224" fill="none" xmlns="http://www.w3.org/2000/svg">
<g filter="url(#filter0_d_253_243)">
<path d="M48.9982 199.352C36.2593 201.261 24.4814 193.18 22.5594 180.457C21.6432 174.346 23.1927 168.122 26.8677 163.152C30.5427 158.182 36.0427 154.872 42.1594 153.949C48.2773 153.034 54.5087 154.582 59.4848 158.252C64.461 161.923 67.7749 167.416 68.6987 173.526C70.6096 186.249 61.737 197.432 48.9982 199.352Z" fill="#5CA9DD"/>
<path d="M26.8504 178.414C26.2033 174.115 27.2925 169.735 29.8784 166.237C32.4643 162.74 36.3352 160.411 40.6397 159.764L43.1092 175.981L26.8504 178.414Z" fill="white"/>
<path d="M64.4971 172.756C63.8412 168.462 61.5067 164.605 58.0059 162.029C54.5052 159.453 50.1243 158.37 45.8246 159.016L48.2718 175.233L64.4971 172.756Z" fill="white"/>
<path d="M31.9348 207.533C32.1528 208.974 31.9381 210.447 31.318 211.765C30.6978 213.084 29.7 214.19 28.4508 214.942C27.2015 215.694 25.757 216.06 24.2998 215.992C22.8426 215.924 21.4382 215.427 20.2643 214.562C19.0904 213.697 18.1997 212.504 17.7047 211.133C17.2098 209.762 17.133 208.276 17.4839 206.862C17.8349 205.448 18.5978 204.169 19.6763 203.188C20.7548 202.207 22.1003 201.567 23.5428 201.35C25.4765 201.059 27.4469 201.546 29.0206 202.706C30.5944 203.866 31.6426 205.602 31.9348 207.533Z" fill="#CEE5F4"/>
<path d="M80.5324 200.234C80.7512 201.675 80.5367 203.149 79.9162 204.469C79.2956 205.789 78.2968 206.895 77.0463 207.648C75.7958 208.4 74.3499 208.765 72.8917 208.696C71.4335 208.627 70.0286 208.127 68.8549 207.26C67.6812 206.393 66.7916 205.198 66.2986 203.825C65.8057 202.453 65.7317 200.965 66.0859 199.55C66.4401 198.136 67.2067 196.858 68.2884 195.879C69.3702 194.9 70.7186 194.264 72.1628 194.051C74.093 193.766 76.0576 194.257 77.6263 195.416C79.195 196.574 80.24 198.307 80.5324 200.234Z" fill="#CEE5F4"/>
<path d="M76.6326 200.814C76.7357 201.489 76.636 202.179 76.3462 202.797C76.0563 203.416 75.5892 203.934 75.0042 204.287C74.4192 204.64 73.7424 204.811 73.0597 204.78C72.377 204.748 71.719 204.515 71.1691 204.11C70.6191 203.704 70.202 203.145 69.9705 202.503C69.739 201.861 69.7035 201.164 69.8685 200.502C70.0336 199.839 70.3917 199.241 70.8976 198.782C71.4035 198.323 72.0344 198.024 72.7104 197.924C73.614 197.789 74.5342 198.018 75.2694 198.56C76.0045 199.101 76.4947 199.912 76.6326 200.814Z" fill="#373638"/>
<path d="M28.0573 208.125C28.1574 208.798 28.0554 209.487 27.7644 210.103C27.4733 210.719 27.0062 211.235 26.4218 211.586C25.8375 211.937 25.1621 212.107 24.4809 212.076C23.7997 212.044 23.1431 211.812 22.594 211.408C22.0449 211.004 21.6279 210.446 21.3955 209.806C21.1631 209.166 21.1258 208.471 21.2882 207.809C21.4507 207.148 21.8056 206.549 22.3082 206.089C22.8109 205.628 23.4388 205.327 24.1127 205.223C24.5625 205.155 25.0213 205.176 25.4629 205.285C25.9046 205.393 26.3204 205.588 26.6867 205.858C27.053 206.127 27.3626 206.466 27.5977 206.855C27.8329 207.244 27.989 207.675 28.0573 208.125Z" fill="#373638"/>
<g style="mix-blend-mode:multiply">
<path d="M46.1934 179.062L49.8698 203.426" stroke="#5CA9DD" stroke-width="0.62" stroke-miterlimit="10"/>
</g>
<g style="mix-blend-mode:multiply">
<path d="M24.7943 186.472L25.1407 188.749L32.4712 187.644L32.1247 185.367" stroke="#5CA9DD" stroke-width="0.62" stroke-miterlimit="10"/>
</g>
<g style="mix-blend-mode:multiply">
<path d="M59.0105 181.327L59.3569 183.604L66.6873 182.499L66.3521 180.233" stroke="#5CA9DD" stroke-width="0.62" stroke-miterlimit="10"/>
</g>
<path d="M91.7404 190.758C90.8718 184.986 87.7432 179.795 83.0428 176.327C78.3424 172.859 72.4552 171.398 66.6762 172.264L22.7606 178.861C16.9816 179.728 11.7844 182.853 8.31198 187.548C4.83961 192.242 3.37652 198.123 4.24453 203.895L5.36197 211.529L15.5754 209.988C15.3949 208.792 15.452 207.573 15.7435 206.399C16.035 205.225 16.5551 204.12 17.2742 203.147C17.9933 202.173 18.8973 201.351 19.9345 200.727C20.9717 200.103 22.1219 199.689 23.3193 199.508C24.5167 199.328 25.738 199.385 26.9134 199.676C28.0887 199.967 29.1952 200.487 30.1695 201.205C31.1439 201.923 31.967 202.826 32.592 203.862C33.217 204.898 33.6316 206.047 33.8121 207.243L64.4077 202.645C64.1928 201.434 64.2226 200.193 64.4955 198.995C64.7684 197.796 65.2788 196.664 65.9967 195.665C66.7145 194.667 67.6253 193.822 68.6752 193.181C69.7252 192.54 70.893 192.115 72.11 191.931C73.327 191.748 74.5684 191.81 75.761 192.113C76.9536 192.417 78.0733 192.956 79.0541 193.698C80.0349 194.441 80.8568 195.372 81.4715 196.437C82.0863 197.502 82.4813 198.679 82.6333 199.899L92.8579 198.37L91.7404 190.758ZM13.5193 193.102C12.9678 193.106 12.4273 192.947 11.966 192.645C11.5047 192.344 11.1432 191.912 10.9271 191.405C10.711 190.898 10.6499 190.339 10.7516 189.797C10.8533 189.256 11.1132 188.757 11.4985 188.363C11.8838 187.968 12.3773 187.697 12.9168 187.582C13.4563 187.468 14.0177 187.516 14.5302 187.719C15.0427 187.923 15.4833 188.274 15.7966 188.727C16.1098 189.18 16.2817 189.716 16.2906 190.267C16.298 190.638 16.2312 191.006 16.094 191.35C15.9568 191.695 15.752 192.008 15.4917 192.272C15.2314 192.537 14.9208 192.746 14.5783 192.888C14.2357 193.031 13.8681 193.104 13.497 193.102H13.5193ZM76.0962 183.057C75.5447 183.061 75.0042 182.903 74.5429 182.601C74.0816 182.299 73.7201 181.867 73.504 181.36C73.2879 180.853 73.2268 180.294 73.3285 179.753C73.4302 179.211 73.6901 178.712 74.0754 178.318C74.4607 177.924 74.9542 177.652 75.4937 177.538C76.0332 177.423 76.5946 177.471 77.1071 177.674C77.6195 177.878 78.0602 178.229 78.3735 178.682C78.6867 179.136 78.8586 179.671 78.8675 180.222C78.8705 180.957 78.5836 181.662 78.069 182.187C77.5545 182.711 76.8536 183.012 76.1186 183.024L76.0962 183.057Z" fill="#5CA9DD"/>
<path d="M13.497 187.99V1" stroke="white" stroke-width="0.83" stroke-miterlimit="10" stroke-linecap="round"/>
<path d="M76.1186 178.258V1" stroke="white" stroke-width="0.83" stroke-miterlimit="10" stroke-linecap="round"/>
<path d="M76.3532 172.242C76.3532 172.242 79.3927 165.613 81.8287 168.894C84.2647 172.175 76.3532 172.242 76.3532 172.242Z" stroke="white" stroke-width="0.83" stroke-miterlimit="10" stroke-linecap="round"/>
<path d="M75.5151 172.242C75.5151 172.242 73.4702 164.787 70.2855 168.447C67.693 171.483 75.5151 172.242 75.5151 172.242Z" stroke="white" stroke-width="0.83" stroke-miterlimit="10" stroke-linecap="round"/>
<path d="M13.8881 182.019C13.8881 182.019 14.5027 174.742 17.8997 177.008C21.2967 179.274 13.8881 182.019 13.8881 182.019Z" stroke="white" stroke-width="0.83" stroke-miterlimit="10" stroke-linecap="round"/>
<path d="M13.1282 182.287C13.1282 182.287 8.65844 175.97 6.9264 180.479C5.47373 184.229 13.1282 182.287 13.1282 182.287Z" stroke="white" stroke-width="0.83" stroke-miterlimit="10" stroke-linecap="round"/>
</g>
<defs>
<filter id="filter0_d_253_243" x="0" y="0.584961" width="96.8579" height="223.415" filterUnits="userSpaceOnUse" color-interpolation-filters="sRGB">
<feFlood flood-opacity="0" result="BackgroundImageFix"/>
<feColorMatrix in="SourceAlpha" type="matrix" values="0 0 0 0 0 0 0 0 0 0 0 0 0 0 0 0 0 0 127 0" result="hardAlpha"/>
<feOffset dy="4"/>
<feGaussianBlur stdDeviation="2"/>
<feComposite in2="hardAlpha" operator="out"/>
<feColorMatrix type="matrix" values="0 0 0 0 0 0 0 0 0 0 0 0 0 0 0 0 0 0 0.25 0"/>
<feBlend mode="normal" in2="BackgroundImageFix" result="effect1_dropShadow_253_243"/>
<feBlend mode="normal" in="SourceGraphic" in2="effect1_dropShadow_253_243" result="shape"/>
</filter>
</defs>
</svg>
