<svg width="224" height="45" viewBox="0 0 224 45" fill="none" xmlns="http://www.w3.org/2000/svg">
<path d="M8.36 15.2C7.29333 15.2 6.3 15.0267 5.38 14.68C4.47333 14.32 3.68 13.82 3 13.18C2.33333 12.5267 1.81333 11.76 1.44 10.88C1.06667 10 0.88 9.04 0.88 8C0.88 6.96 1.06667 6 1.44 5.12C1.81333 4.24 2.34 3.48 3.02 2.84C3.7 2.18667 4.49333 1.68667 5.4 1.34C6.30667 0.979999 7.3 0.799999 8.38 0.799999C9.52667 0.799999 10.5733 0.999999 11.52 1.4C12.4667 1.78667 13.2667 2.36667 13.92 3.14L12.24 4.72C11.7333 4.17333 11.1667 3.76667 10.54 3.5C9.91333 3.22 9.23333 3.08 8.5 3.08C7.76667 3.08 7.09333 3.2 6.48 3.44C5.88 3.68 5.35333 4.02 4.9 4.46C4.46 4.9 4.11333 5.42 3.86 6.02C3.62 6.62 3.5 7.28 3.5 8C3.5 8.72 3.62 9.38 3.86 9.98C4.11333 10.58 4.46 11.1 4.9 11.54C5.35333 11.98 5.88 12.32 6.48 12.56C7.09333 12.8 7.76667 12.92 8.5 12.92C9.23333 12.92 9.91333 12.7867 10.54 12.52C11.1667 12.24 11.7333 11.82 12.24 11.26L13.92 12.86C13.2667 13.62 12.4667 14.2 11.52 14.6C10.5733 15 9.52 15.2 8.36 15.2ZM20.7811 15.14C19.5944 15.14 18.5544 14.9067 17.6611 14.44C16.7811 13.96 16.0944 13.3067 15.6011 12.48C15.1211 11.6533 14.8811 10.7133 14.8811 9.66C14.8811 8.59333 15.1144 7.65333 15.5811 6.84C16.0611 6.01333 16.7144 5.36667 17.5411 4.9C18.3811 4.43333 19.3344 4.2 20.4011 4.2C21.4411 4.2 22.3678 4.42667 23.1811 4.88C23.9944 5.33333 24.6344 5.97333 25.1011 6.8C25.5678 7.62667 25.8011 8.6 25.8011 9.72C25.8011 9.82667 25.7944 9.94667 25.7811 10.08C25.7811 10.2133 25.7744 10.34 25.7611 10.46H16.8611V8.8H24.4411L23.4611 9.32C23.4744 8.70667 23.3478 8.16667 23.0811 7.7C22.8144 7.23333 22.4478 6.86667 21.9811 6.6C21.5278 6.33333 21.0011 6.2 20.4011 6.2C19.7878 6.2 19.2478 6.33333 18.7811 6.6C18.3278 6.86667 17.9678 7.24 17.7011 7.72C17.4478 8.18667 17.3211 8.74 17.3211 9.38V9.78C17.3211 10.42 17.4678 10.9867 17.7611 11.48C18.0544 11.9733 18.4678 12.3533 19.0011 12.62C19.5344 12.8867 20.1478 13.02 20.8411 13.02C21.4411 13.02 21.9811 12.9267 22.4611 12.74C22.9411 12.5533 23.3678 12.26 23.7411 11.86L25.0811 13.4C24.6011 13.96 23.9944 14.3933 23.2611 14.7C22.5411 14.9933 21.7144 15.14 20.7811 15.14ZM28.2025 15V0.159999H30.7025V15H28.2025ZM39.0038 15.14C37.8171 15.14 36.7771 14.9067 35.8838 14.44C35.0038 13.96 34.3171 13.3067 33.8238 12.48C33.3438 11.6533 33.1038 10.7133 33.1038 9.66C33.1038 8.59333 33.3371 7.65333 33.8038 6.84C34.2838 6.01333 34.9371 5.36667 35.7638 4.9C36.6038 4.43333 37.5571 4.2 38.6238 4.2C39.6638 4.2 40.5904 4.42667 41.4038 4.88C42.2171 5.33333 42.8571 5.97333 43.3238 6.8C43.7904 7.62667 44.0238 8.6 44.0238 9.72C44.0238 9.82667 44.0171 9.94667 44.0038 10.08C44.0038 10.2133 43.9971 10.34 43.9838 10.46H35.0838V8.8H42.6638L41.6838 9.32C41.6971 8.70667 41.5704 8.16667 41.3038 7.7C41.0371 7.23333 40.6704 6.86667 40.2038 6.6C39.7504 6.33333 39.2238 6.2 38.6238 6.2C38.0104 6.2 37.4704 6.33333 37.0038 6.6C36.5504 6.86667 36.1904 7.24 35.9238 7.72C35.6704 8.18667 35.5438 8.74 35.5438 9.38V9.78C35.5438 10.42 35.6904 10.9867 35.9838 11.48C36.2771 11.9733 36.6904 12.3533 37.2238 12.62C37.7571 12.8867 38.3704 13.02 39.0638 13.02C39.6638 13.02 40.2038 12.9267 40.6838 12.74C41.1638 12.5533 41.5904 12.26 41.9638 11.86L43.3038 13.4C42.8238 13.96 42.2171 14.3933 41.4838 14.7C40.7638 14.9933 39.9371 15.14 39.0038 15.14ZM52.3452 15.14C51.4385 15.14 50.6318 14.94 49.9252 14.54C49.2185 14.14 48.6585 13.54 48.2452 12.74C47.8452 11.9267 47.6452 10.9 47.6452 9.66C47.6452 8.40667 47.8518 7.38 48.2652 6.58C48.6918 5.78 49.2585 5.18667 49.9652 4.8C50.6852 4.4 51.4785 4.2 52.3452 4.2C53.3985 4.2 54.3252 4.42667 55.1252 4.88C55.9385 5.33333 56.5785 5.96667 57.0452 6.78C57.5252 7.59333 57.7652 8.55333 57.7652 9.66C57.7652 10.7667 57.5252 11.7267 57.0452 12.54C56.5785 13.3533 55.9385 13.9933 55.1252 14.46C54.3252 14.9133 53.3985 15.14 52.3452 15.14ZM46.4252 15V0.159999H48.9252V6.8L48.7252 9.64L48.8052 12.48V15H46.4252ZM52.0652 13C52.6652 13 53.1985 12.8667 53.6652 12.6C54.1452 12.3333 54.5252 11.9467 54.8052 11.44C55.0852 10.9333 55.2252 10.34 55.2252 9.66C55.2252 8.96667 55.0852 8.37333 54.8052 7.88C54.5252 7.37333 54.1452 6.98667 53.6652 6.72C53.1985 6.45333 52.6652 6.32 52.0652 6.32C51.4652 6.32 50.9252 6.45333 50.4452 6.72C49.9652 6.98667 49.5852 7.37333 49.3052 7.88C49.0252 8.37333 48.8852 8.96667 48.8852 9.66C48.8852 10.34 49.0252 10.9333 49.3052 11.44C49.5852 11.9467 49.9652 12.3333 50.4452 12.6C50.9252 12.8667 51.4652 13 52.0652 13ZM60.1361 15V4.32H62.5161V7.26L62.2361 6.4C62.5561 5.68 63.0561 5.13333 63.7361 4.76C64.4294 4.38667 65.2894 4.2 66.3161 4.2V6.58C66.2094 6.55333 66.1094 6.54 66.0161 6.54C65.9228 6.52667 65.8294 6.52 65.7361 6.52C64.7894 6.52 64.0361 6.8 63.4761 7.36C62.9161 7.90667 62.6361 8.72667 62.6361 9.82V15H60.1361ZM74.2552 15V12.84L74.1152 12.38V8.6C74.1152 7.86667 73.8952 7.3 73.4552 6.9C73.0152 6.48667 72.3485 6.28 71.4552 6.28C70.8552 6.28 70.2618 6.37333 69.6752 6.56C69.1018 6.74667 68.6152 7.00667 68.2152 7.34L67.2352 5.52C67.8085 5.08 68.4885 4.75333 69.2752 4.54C70.0752 4.31333 70.9018 4.2 71.7552 4.2C73.3018 4.2 74.4952 4.57333 75.3352 5.32C76.1885 6.05333 76.6152 7.19333 76.6152 8.74V15H74.2552ZM70.8952 15.14C70.0952 15.14 69.3952 15.0067 68.7952 14.74C68.1952 14.46 67.7285 14.08 67.3952 13.6C67.0752 13.1067 66.9152 12.5533 66.9152 11.94C66.9152 11.34 67.0552 10.8 67.3352 10.32C67.6285 9.84 68.1018 9.46 68.7552 9.18C69.4085 8.9 70.2752 8.76 71.3552 8.76H74.4552V10.42H71.5352C70.6818 10.42 70.1085 10.56 69.8152 10.84C69.5218 11.1067 69.3752 11.44 69.3752 11.84C69.3752 12.2933 69.5552 12.6533 69.9152 12.92C70.2752 13.1867 70.7752 13.32 71.4152 13.32C72.0285 13.32 72.5752 13.18 73.0552 12.9C73.5485 12.62 73.9018 12.2067 74.1152 11.66L74.5352 13.16C74.2952 13.7867 73.8618 14.2733 73.2352 14.62C72.6218 14.9667 71.8418 15.14 70.8952 15.14ZM83.8436 15.14C82.6703 15.14 81.7636 14.84 81.1236 14.24C80.4836 13.6267 80.1636 12.7267 80.1636 11.54V1.96H82.6636V11.48C82.6636 11.9867 82.7903 12.38 83.0436 12.66C83.3103 12.94 83.6769 13.08 84.1436 13.08C84.7036 13.08 85.1703 12.9333 85.5436 12.64L86.2436 14.42C85.9503 14.66 85.5903 14.84 85.1636 14.96C84.7369 15.08 84.2969 15.14 83.8436 15.14ZM78.4036 6.4V4.4H85.5236V6.4H78.4036ZM92.9686 15.14C91.7819 15.14 90.7419 14.9067 89.8486 14.44C88.9686 13.96 88.2819 13.3067 87.7886 12.48C87.3086 11.6533 87.0686 10.7133 87.0686 9.66C87.0686 8.59333 87.3019 7.65333 87.7686 6.84C88.2486 6.01333 88.9019 5.36667 89.7286 4.9C90.5686 4.43333 91.5219 4.2 92.5886 4.2C93.6286 4.2 94.5553 4.42667 95.3686 4.88C96.1819 5.33333 96.8219 5.97333 97.2886 6.8C97.7553 7.62667 97.9886 8.6 97.9886 9.72C97.9886 9.82667 97.9819 9.94667 97.9686 10.08C97.9686 10.2133 97.9619 10.34 97.9486 10.46H89.0486V8.8H96.6286L95.6486 9.32C95.6619 8.70667 95.5353 8.16667 95.2686 7.7C95.0019 7.23333 94.6353 6.86667 94.1686 6.6C93.7153 6.33333 93.1886 6.2 92.5886 6.2C91.9753 6.2 91.4353 6.33333 90.9686 6.6C90.5153 6.86667 90.1553 7.24 89.8886 7.72C89.6353 8.18667 89.5086 8.74 89.5086 9.38V9.78C89.5086 10.42 89.6553 10.9867 89.9486 11.48C90.2419 11.9733 90.6553 12.3533 91.1886 12.62C91.7219 12.8867 92.3353 13.02 93.0286 13.02C93.6286 13.02 94.1686 12.9267 94.6486 12.74C95.1286 12.5533 95.5553 12.26 95.9286 11.86L97.2686 13.4C96.7886 13.96 96.1819 14.3933 95.4486 14.7C94.7286 14.9933 93.9019 15.14 92.9686 15.14ZM109.597 15V9.46L110.177 11.06L104.097 0.999999H106.877L111.757 9.1H110.197L115.117 0.999999H117.677L111.597 11.06L112.197 9.46V15H109.597ZM122.749 15.14C121.655 15.14 120.682 14.9067 119.829 14.44C118.975 13.96 118.302 13.3067 117.809 12.48C117.315 11.6533 117.069 10.7133 117.069 9.66C117.069 8.59333 117.315 7.65333 117.809 6.84C118.302 6.01333 118.975 5.36667 119.829 4.9C120.682 4.43333 121.655 4.2 122.749 4.2C123.855 4.2 124.835 4.43333 125.689 4.9C126.555 5.36667 127.229 6.00667 127.709 6.82C128.202 7.63333 128.449 8.58 128.449 9.66C128.449 10.7133 128.202 11.6533 127.709 12.48C127.229 13.3067 126.555 13.96 125.689 14.44C124.835 14.9067 123.855 15.14 122.749 15.14ZM122.749 13C123.362 13 123.909 12.8667 124.389 12.6C124.869 12.3333 125.242 11.9467 125.509 11.44C125.789 10.9333 125.929 10.34 125.929 9.66C125.929 8.96667 125.789 8.37333 125.509 7.88C125.242 7.37333 124.869 6.98667 124.389 6.72C123.909 6.45333 123.369 6.32 122.769 6.32C122.155 6.32 121.609 6.45333 121.129 6.72C120.662 6.98667 120.289 7.37333 120.009 7.88C119.729 8.37333 119.589 8.96667 119.589 9.66C119.589 10.34 119.729 10.9333 120.009 11.44C120.289 11.9467 120.662 12.3333 121.129 12.6C121.609 12.8667 122.149 13 122.749 13ZM135.359 15.14C134.453 15.14 133.653 14.9733 132.959 14.64C132.266 14.2933 131.726 13.7733 131.339 13.08C130.953 12.3733 130.759 11.4867 130.759 10.42V4.32H133.259V10.08C133.259 11.04 133.473 11.76 133.899 12.24C134.339 12.7067 134.959 12.94 135.759 12.94C136.346 12.94 136.853 12.82 137.279 12.58C137.719 12.34 138.059 11.98 138.299 11.5C138.553 11.02 138.679 10.4267 138.679 9.72V4.32H141.179V15H138.799V12.12L139.219 13C138.859 13.6933 138.333 14.2267 137.639 14.6C136.946 14.96 136.186 15.14 135.359 15.14ZM144.453 15V4.32H146.833V7.26L146.553 6.4C146.873 5.68 147.373 5.13333 148.053 4.76C148.746 4.38667 149.606 4.2 150.633 4.2V6.58C150.526 6.55333 150.426 6.54 150.333 6.54C150.239 6.52667 150.146 6.52 150.053 6.52C149.106 6.52 148.353 6.8 147.793 7.36C147.233 7.90667 146.953 8.72667 146.953 9.82V15H144.453ZM158.618 15V0.999999H165.178C166.858 0.999999 168.138 1.33333 169.018 2C169.898 2.65333 170.338 3.53333 170.338 4.64C170.338 5.38667 170.165 6.02667 169.818 6.56C169.472 7.08 169.005 7.48667 168.418 7.78C167.845 8.06 167.218 8.2 166.538 8.2L166.898 7.48C167.685 7.48 168.392 7.62667 169.018 7.92C169.645 8.2 170.138 8.61333 170.498 9.16C170.872 9.70667 171.058 10.3867 171.058 11.2C171.058 12.4 170.598 13.3333 169.678 14C168.758 14.6667 167.392 15 165.578 15H158.618ZM161.218 12.96H165.418C166.392 12.96 167.138 12.8 167.658 12.48C168.178 12.16 168.438 11.6467 168.438 10.94C168.438 10.2467 168.178 9.74 167.658 9.42C167.138 9.08667 166.392 8.92 165.418 8.92H161.018V6.9H164.898C165.805 6.9 166.498 6.74 166.978 6.42C167.472 6.1 167.718 5.62 167.718 4.98C167.718 4.32667 167.472 3.84 166.978 3.52C166.498 3.2 165.805 3.04 164.898 3.04H161.218V12.96ZM180.173 15V12.84L180.033 12.38V8.6C180.033 7.86667 179.813 7.3 179.373 6.9C178.933 6.48667 178.266 6.28 177.373 6.28C176.773 6.28 176.18 6.37333 175.593 6.56C175.02 6.74667 174.533 7.00667 174.133 7.34L173.153 5.52C173.726 5.08 174.406 4.75333 175.193 4.54C175.993 4.31333 176.82 4.2 177.673 4.2C179.22 4.2 180.413 4.57333 181.253 5.32C182.106 6.05333 182.533 7.19333 182.533 8.74V15H180.173ZM176.813 15.14C176.013 15.14 175.313 15.0067 174.713 14.74C174.113 14.46 173.646 14.08 173.313 13.6C172.993 13.1067 172.833 12.5533 172.833 11.94C172.833 11.34 172.973 10.8 173.253 10.32C173.546 9.84 174.02 9.46 174.673 9.18C175.326 8.9 176.193 8.76 177.273 8.76H180.373V10.42H177.453C176.6 10.42 176.026 10.56 175.733 10.84C175.44 11.1067 175.293 11.44 175.293 11.84C175.293 12.2933 175.473 12.6533 175.833 12.92C176.193 13.1867 176.693 13.32 177.333 13.32C177.946 13.32 178.493 13.18 178.973 12.9C179.466 12.62 179.82 12.2067 180.033 11.66L180.453 13.16C180.213 13.7867 179.78 14.2733 179.153 14.62C178.54 14.9667 177.76 15.14 176.813 15.14ZM191.662 15.14C190.755 15.14 189.948 14.94 189.242 14.54C188.535 14.14 187.975 13.54 187.562 12.74C187.162 11.9267 186.962 10.9 186.962 9.66C186.962 8.40667 187.168 7.38 187.582 6.58C188.008 5.78 188.575 5.18667 189.282 4.8C190.002 4.4 190.795 4.2 191.662 4.2C192.715 4.2 193.642 4.42667 194.442 4.88C195.255 5.33333 195.895 5.96667 196.362 6.78C196.842 7.59333 197.082 8.55333 197.082 9.66C197.082 10.7667 196.842 11.7267 196.362 12.54C195.895 13.3533 195.255 13.9933 194.442 14.46C193.642 14.9133 192.715 15.14 191.662 15.14ZM185.742 15V0.159999H188.242V6.8L188.042 9.64L188.122 12.48V15H185.742ZM191.382 13C191.982 13 192.515 12.8667 192.982 12.6C193.462 12.3333 193.842 11.9467 194.122 11.44C194.402 10.9333 194.542 10.34 194.542 9.66C194.542 8.96667 194.402 8.37333 194.122 7.88C193.842 7.37333 193.462 6.98667 192.982 6.72C192.515 6.45333 191.982 6.32 191.382 6.32C190.782 6.32 190.242 6.45333 189.762 6.72C189.282 6.98667 188.902 7.37333 188.622 7.88C188.342 8.37333 188.202 8.96667 188.202 9.66C188.202 10.34 188.342 10.9333 188.622 11.44C188.902 11.9467 189.282 12.3333 189.762 12.6C190.242 12.8667 190.782 13 191.382 13ZM200.04 19.02C199.52 19.02 199 18.9333 198.48 18.76C197.96 18.5867 197.526 18.3467 197.18 18.04L198.18 16.2C198.433 16.4267 198.72 16.6067 199.04 16.74C199.36 16.8733 199.686 16.94 200.02 16.94C200.473 16.94 200.84 16.8267 201.12 16.6C201.4 16.3733 201.66 15.9933 201.9 15.46L202.52 14.06L202.72 13.76L206.76 4.32H209.16L204.16 15.86C203.826 16.66 203.453 17.2933 203.04 17.76C202.64 18.2267 202.186 18.5533 201.68 18.74C201.186 18.9267 200.64 19.02 200.04 19.02ZM202.24 15.38L197.42 4.32H200.02L203.94 13.54L202.24 15.38ZM210.362 6.54L210.202 0.999999H212.362L212.182 6.54H210.362ZM218.417 15.14C217.523 15.14 216.663 15.0267 215.837 14.8C215.023 14.56 214.377 14.2733 213.897 13.94L214.857 12.04C215.337 12.3467 215.91 12.6 216.577 12.8C217.243 13 217.91 13.1 218.577 13.1C219.363 13.1 219.93 12.9933 220.277 12.78C220.637 12.5667 220.817 12.28 220.817 11.92C220.817 11.6267 220.697 11.4067 220.457 11.26C220.217 11.1 219.903 10.98 219.517 10.9C219.13 10.82 218.697 10.7467 218.217 10.68C217.75 10.6133 217.277 10.5267 216.797 10.42C216.33 10.3 215.903 10.1333 215.517 9.92C215.13 9.69333 214.817 9.39333 214.577 9.02C214.337 8.64667 214.217 8.15333 214.217 7.54C214.217 6.86 214.41 6.27333 214.797 5.78C215.183 5.27333 215.723 4.88667 216.417 4.62C217.123 4.34 217.957 4.2 218.917 4.2C219.637 4.2 220.363 4.28 221.097 4.44C221.83 4.6 222.437 4.82667 222.917 5.12L221.957 7.02C221.45 6.71333 220.937 6.50667 220.417 6.4C219.91 6.28 219.403 6.22 218.897 6.22C218.137 6.22 217.57 6.33333 217.197 6.56C216.837 6.78667 216.657 7.07333 216.657 7.42C216.657 7.74 216.777 7.98 217.017 8.14C217.257 8.3 217.57 8.42667 217.957 8.52C218.343 8.61333 218.77 8.69333 219.237 8.76C219.717 8.81333 220.19 8.9 220.657 9.02C221.123 9.14 221.55 9.30667 221.937 9.52C222.337 9.72 222.657 10.0067 222.897 10.38C223.137 10.7533 223.257 11.24 223.257 11.84C223.257 12.5067 223.057 13.0867 222.657 13.58C222.27 14.0733 221.717 14.46 220.997 14.74C220.277 15.0067 219.417 15.14 218.417 15.14ZM6.22 40.2C5.12667 40.2 4.08 40.0467 3.08 39.74C2.08 39.42 1.28667 39.0133 0.7 38.52L1.6 36.5C2.16 36.94 2.85333 37.3067 3.68 37.6C4.50667 37.8933 5.35333 38.04 6.22 38.04C6.95333 38.04 7.54667 37.96 8 37.8C8.45333 37.64 8.78667 37.4267 9 37.16C9.21333 36.88 9.32 36.5667 9.32 36.22C9.32 35.7933 9.16667 35.4533 8.86 35.2C8.55333 34.9333 8.15333 34.7267 7.66 34.58C7.18 34.42 6.64 34.2733 6.04 34.14C5.45333 34.0067 4.86 33.8533 4.26 33.68C3.67333 33.4933 3.13333 33.26 2.64 32.98C2.16 32.6867 1.76667 32.3 1.46 31.82C1.15333 31.34 1 30.7267 1 29.98C1 29.22 1.2 28.5267 1.6 27.9C2.01333 27.26 2.63333 26.7533 3.46 26.38C4.3 25.9933 5.36 25.8 6.64 25.8C7.48 25.8 8.31333 25.9067 9.14 26.12C9.96667 26.3333 10.6867 26.64 11.3 27.04L10.48 29.06C9.85333 28.6867 9.20667 28.4133 8.54 28.24C7.87333 28.0533 7.23333 27.96 6.62 27.96C5.9 27.96 5.31333 28.0467 4.86 28.22C4.42 28.3933 4.09333 28.62 3.88 28.9C3.68 29.18 3.58 29.5 3.58 29.86C3.58 30.2867 3.72667 30.6333 4.02 30.9C4.32667 31.1533 4.72 31.3533 5.2 31.5C5.69333 31.6467 6.24 31.7933 6.84 31.94C7.44 32.0733 8.03333 32.2267 8.62 32.4C9.22 32.5733 9.76 32.8 10.24 33.08C10.7333 33.36 11.1267 33.74 11.42 34.22C11.7267 34.7 11.88 35.3067 11.88 36.04C11.88 36.7867 11.6733 37.48 11.26 38.12C10.86 38.7467 10.24 39.2533 9.4 39.64C8.56 40.0133 7.5 40.2 6.22 40.2ZM18.2381 40.14C17.0648 40.14 16.1581 39.84 15.5181 39.24C14.8781 38.6267 14.5581 37.7267 14.5581 36.54V26.96H17.0581V36.48C17.0581 36.9867 17.1848 37.38 17.4381 37.66C17.7048 37.94 18.0715 38.08 18.5381 38.08C19.0981 38.08 19.5648 37.9333 19.9381 37.64L20.6381 39.42C20.3448 39.66 19.9848 39.84 19.5581 39.96C19.1315 40.08 18.6915 40.14 18.2381 40.14ZM12.7981 31.4V29.4H19.9181V31.4H12.7981ZM27.1431 40.14C26.0498 40.14 25.0765 39.9067 24.2231 39.44C23.3698 38.96 22.6965 38.3067 22.2031 37.48C21.7098 36.6533 21.4631 35.7133 21.4631 34.66C21.4631 33.5933 21.7098 32.6533 22.2031 31.84C22.6965 31.0133 23.3698 30.3667 24.2231 29.9C25.0765 29.4333 26.0498 29.2 27.1431 29.2C28.2498 29.2 29.2298 29.4333 30.0831 29.9C30.9498 30.3667 31.6231 31.0067 32.1031 31.82C32.5965 32.6333 32.8431 33.58 32.8431 34.66C32.8431 35.7133 32.5965 36.6533 32.1031 37.48C31.6231 38.3067 30.9498 38.96 30.0831 39.44C29.2298 39.9067 28.2498 40.14 27.1431 40.14ZM27.1431 38C27.7565 38 28.3031 37.8667 28.7831 37.6C29.2631 37.3333 29.6365 36.9467 29.9031 36.44C30.1831 35.9333 30.3231 35.34 30.3231 34.66C30.3231 33.9667 30.1831 33.3733 29.9031 32.88C29.6365 32.3733 29.2631 31.9867 28.7831 31.72C28.3031 31.4533 27.7631 31.32 27.1631 31.32C26.5498 31.32 26.0031 31.4533 25.5231 31.72C25.0565 31.9867 24.6831 32.3733 24.4031 32.88C24.1231 33.3733 23.9831 33.9667 23.9831 34.66C23.9831 35.34 24.1231 35.9333 24.4031 36.44C24.6831 36.9467 25.0565 37.3333 25.5231 37.6C26.0031 37.8667 26.5431 38 27.1431 38ZM35.2338 40V29.32H37.6138V32.26L37.3338 31.4C37.6538 30.68 38.1538 30.1333 38.8338 29.76C39.5271 29.3867 40.3871 29.2 41.4138 29.2V31.58C41.3071 31.5533 41.2071 31.54 41.1138 31.54C41.0204 31.5267 40.9271 31.52 40.8338 31.52C39.8871 31.52 39.1338 31.8 38.5738 32.36C38.0138 32.9067 37.7338 33.7267 37.7338 34.82V40H35.2338ZM44.8052 44.02C44.2852 44.02 43.7652 43.9333 43.2452 43.76C42.7252 43.5867 42.2918 43.3467 41.9452 43.04L42.9452 41.2C43.1985 41.4267 43.4852 41.6067 43.8052 41.74C44.1252 41.8733 44.4518 41.94 44.7852 41.94C45.2385 41.94 45.6052 41.8267 45.8852 41.6C46.1652 41.3733 46.4252 40.9933 46.6652 40.46L47.2852 39.06L47.4852 38.76L51.5252 29.32H53.9252L48.9252 40.86C48.5918 41.66 48.2185 42.2933 47.8052 42.76C47.4052 43.2267 46.9518 43.5533 46.4452 43.74C45.9518 43.9267 45.4052 44.02 44.8052 44.02ZM47.0052 40.38L42.1852 29.32H44.7852L48.7052 38.54L47.0052 40.38ZM63.375 40L59.455 29.32H61.815L65.175 38.74H64.055L67.575 29.32H69.675L73.095 38.74H71.995L75.455 29.32H77.675L73.735 40H71.335L68.215 31.66H68.955L65.775 40H63.375ZM79.3939 40V29.32H81.8939V40H79.3939ZM80.6539 27.56C80.1872 27.56 79.8006 27.4133 79.4939 27.12C79.2006 26.8267 79.0539 26.4733 79.0539 26.06C79.0539 25.6333 79.2006 25.28 79.4939 25C79.8006 24.7067 80.1872 24.56 80.6539 24.56C81.1206 24.56 81.5006 24.7 81.7939 24.98C82.1006 25.2467 82.2539 25.5867 82.2539 26C82.2539 26.44 82.1072 26.8133 81.8139 27.12C81.5206 27.4133 81.1339 27.56 80.6539 27.56ZM89.1952 40.14C88.0218 40.14 87.1152 39.84 86.4752 39.24C85.8352 38.6267 85.5152 37.7267 85.5152 36.54V26.96H88.0152V36.48C88.0152 36.9867 88.1418 37.38 88.3952 37.66C88.6618 37.94 89.0285 38.08 89.4952 38.08C90.0552 38.08 90.5218 37.9333 90.8952 37.64L91.5952 39.42C91.3018 39.66 90.9418 39.84 90.5152 39.96C90.0885 40.08 89.6485 40.14 89.1952 40.14ZM83.7552 31.4V29.4H90.8752V31.4H83.7552ZM99.7117 29.2C100.565 29.2 101.325 29.3667 101.992 29.7C102.672 30.0333 103.205 30.5467 103.592 31.24C103.978 31.92 104.172 32.8 104.172 33.88V40H101.672V34.2C101.672 33.2533 101.445 32.5467 100.992 32.08C100.552 31.6133 99.9317 31.38 99.1317 31.38C98.5451 31.38 98.0251 31.5 97.5717 31.74C97.1184 31.98 96.7651 32.34 96.5117 32.82C96.2717 33.2867 96.1517 33.88 96.1517 34.6V40H93.6517V25.16H96.1517V32.2L95.6117 31.32C95.9851 30.64 96.5251 30.12 97.2317 29.76C97.9517 29.3867 98.7784 29.2 99.7117 29.2ZM119.13 40.2C117.21 40.2 115.704 39.66 114.61 38.58C113.53 37.5 112.99 35.94 112.99 33.9V26H115.59V33.8C115.59 35.24 115.897 36.2867 116.51 36.94C117.137 37.5933 118.017 37.92 119.15 37.92C120.284 37.92 121.157 37.5933 121.77 36.94C122.384 36.2867 122.69 35.24 122.69 33.8V26H125.25V33.9C125.25 35.94 124.704 37.5 123.61 38.58C122.53 39.66 121.037 40.2 119.13 40.2ZM131.952 40.14C131.058 40.14 130.198 40.0267 129.372 39.8C128.558 39.56 127.912 39.2733 127.432 38.94L128.392 37.04C128.872 37.3467 129.445 37.6 130.112 37.8C130.778 38 131.445 38.1 132.112 38.1C132.898 38.1 133.465 37.9933 133.812 37.78C134.172 37.5667 134.352 37.28 134.352 36.92C134.352 36.6267 134.232 36.4067 133.992 36.26C133.752 36.1 133.438 35.98 133.052 35.9C132.665 35.82 132.232 35.7467 131.752 35.68C131.285 35.6133 130.812 35.5267 130.332 35.42C129.865 35.3 129.438 35.1333 129.052 34.92C128.665 34.6933 128.352 34.3933 128.112 34.02C127.872 33.6467 127.752 33.1533 127.752 32.54C127.752 31.86 127.945 31.2733 128.332 30.78C128.718 30.2733 129.258 29.8867 129.952 29.62C130.658 29.34 131.492 29.2 132.452 29.2C133.172 29.2 133.898 29.28 134.632 29.44C135.365 29.6 135.972 29.8267 136.452 30.12L135.492 32.02C134.985 31.7133 134.472 31.5067 133.952 31.4C133.445 31.28 132.938 31.22 132.432 31.22C131.672 31.22 131.105 31.3333 130.732 31.56C130.372 31.7867 130.192 32.0733 130.192 32.42C130.192 32.74 130.312 32.98 130.552 33.14C130.792 33.3 131.105 33.4267 131.492 33.52C131.878 33.6133 132.305 33.6933 132.772 33.76C133.252 33.8133 133.725 33.9 134.192 34.02C134.658 34.14 135.085 34.3067 135.472 34.52C135.872 34.72 136.192 35.0067 136.432 35.38C136.672 35.7533 136.792 36.24 136.792 36.84C136.792 37.5067 136.592 38.0867 136.192 38.58C135.805 39.0733 135.252 39.46 134.532 39.74C133.812 40.0067 132.952 40.14 131.952 40.14ZM139.105 35.36L138.625 26H141.585L141.085 35.36H139.105ZM140.105 40.14C139.638 40.14 139.251 39.9867 138.945 39.68C138.638 39.3733 138.485 39.0067 138.485 38.58C138.485 38.1533 138.638 37.7933 138.945 37.5C139.251 37.1933 139.638 37.04 140.105 37.04C140.571 37.04 140.951 37.1933 141.245 37.5C141.538 37.7933 141.685 38.1533 141.685 38.58C141.685 39.0067 141.538 39.3733 141.245 39.68C140.951 39.9867 140.571 40.14 140.105 40.14Z" fill="white"/>
</svg>
