<svg width="178" height="339" viewBox="0 0 178 339" fill="none" xmlns="http://www.w3.org/2000/svg">
<g filter="url(#filter0_d_250_181)">
<path d="M67.6842 260.185C39.7089 225.879 34.2461 182.204 56.4172 149.25C48.8738 152.445 41.8302 156.721 35.5051 161.943C-2.90494 193.654 -6.7246 252.702 26.9695 293.847C60.6637 334.992 119.026 342.625 157.414 311C163.741 305.782 169.282 299.673 173.867 292.861C137.356 308.255 95.7662 294.383 67.6842 260.185Z" fill="#DEEDF8"/>
<g style="mix-blend-mode:multiply" opacity="0.52">
<path d="M56.4172 149.25L55.2222 149.786C54.5607 151.265 53.9206 152.745 53.3444 154.245C54.3047 152.552 55.2222 150.879 56.4172 149.25Z" fill="#DEEDF8"/>
<path d="M162.642 299.85C124.232 331.561 65.849 323.929 32.1976 282.698C8.68208 254.031 3.47538 216.531 15.5745 185.742C-2.79825 218.225 0.509274 261.557 26.9268 293.847C60.5783 334.971 118.983 342.625 157.372 311C163.698 305.783 169.239 299.673 173.824 292.861C171.925 293.675 170.004 294.383 168.084 295.005C166.355 296.634 164.541 298.35 162.642 299.85Z" fill="#DEEDF8"/>
</g>
<path d="M45.4704 173.435C45.4704 173.435 37.4043 173.907 35.5051 161.943V0" stroke="white" stroke-miterlimit="10"/>
<path d="M35.7374 150.512C35.7374 150.512 35.3533 136.49 42.2884 140.092C49.2236 143.694 35.7374 150.512 35.7374 150.512Z" stroke="white" stroke-width="0.83" stroke-miterlimit="10" stroke-linecap="round"/>
<path d="M34.3504 151.198C34.3504 151.198 24.5558 140.07 22.1872 149.054C20.224 156.515 34.3504 151.198 34.3504 151.198Z" stroke="white" stroke-width="0.83" stroke-miterlimit="10" stroke-linecap="round"/>
</g>
<defs>
<filter id="filter0_d_250_181" x="0" y="0" width="177.867" height="338.5" filterUnits="userSpaceOnUse" color-interpolation-filters="sRGB">
<feFlood flood-opacity="0" result="BackgroundImageFix"/>
<feColorMatrix in="SourceAlpha" type="matrix" values="0 0 0 0 0 0 0 0 0 0 0 0 0 0 0 0 0 0 127 0" result="hardAlpha"/>
<feOffset dy="4"/>
<feGaussianBlur stdDeviation="2"/>
<feComposite in2="hardAlpha" operator="out"/>
<feColorMatrix type="matrix" values="0 0 0 0 0 0 0 0 0 0 0 0 0 0 0 0 0 0 0.25 0"/>
<feBlend mode="normal" in2="BackgroundImageFix" result="effect1_dropShadow_250_181"/>
<feBlend mode="normal" in="SourceGraphic" in2="effect1_dropShadow_250_181" result="shape"/>
</filter>
</defs>
</svg>
