<svg width="68" height="191" viewBox="0 0 68 191" fill="none" xmlns="http://www.w3.org/2000/svg">
<g filter="url(#filter0_d_250_192)">
<path d="M44.3151 104.557C44.3151 104.557 49.6787 92.753 53.9421 98.6548C58.2055 104.557 44.3151 104.557 44.3151 104.557Z" stroke="white" stroke-width="0.83" stroke-miterlimit="10" stroke-linecap="round"/>
<path d="M42.9006 104.557C42.9006 104.557 39.3052 91.4153 33.7058 97.8482C29.0692 103.199 42.9006 104.557 42.9006 104.557Z" stroke="white" stroke-width="0.83" stroke-miterlimit="10" stroke-linecap="round"/>
<path d="M25.9846 182.794C28.5208 182.536 30.9815 181.78 33.226 180.57C35.4705 179.359 37.4549 177.718 39.0659 175.74C40.6768 173.761 41.8828 171.484 42.6149 169.039C43.3471 166.594 43.591 164.029 43.3328 161.489C42.9579 157.698 41.4672 154.103 39.0498 151.161C38.146 146.007 45.3957 145.574 45.3957 145.574C45.3957 145.574 25.3952 131.567 27.1044 136.269C29.6585 143.351 24.2556 143.371 22.0355 144.138C19.4424 144.325 16.9131 145.031 14.5974 146.214C12.2817 147.398 10.2268 149.034 8.55429 151.028C6.8818 153.021 5.62577 155.33 4.8606 157.818C4.09543 160.306 3.83668 162.922 4.09967 165.512C4.36266 168.102 5.14205 170.612 6.39167 172.895C7.64129 175.178 9.33573 177.187 11.3746 178.802C13.4135 180.417 15.7554 181.606 18.2616 182.299C20.7678 182.991 23.3873 183.173 25.9649 182.834L25.9846 182.794Z" fill="#BDDCF1"/>
<g style="mix-blend-mode:multiply" opacity="0.43">
<path d="M42.5469 157.673C41.8154 155.289 40.6276 153.071 39.0498 151.141C38.146 145.987 45.3957 145.554 45.3957 145.554C45.3957 145.554 25.3952 131.547 27.1045 136.249C29.6586 143.331 24.2557 143.351 22.0356 144.118C17.4742 144.576 13.2212 146.633 10.0286 149.927C6.83599 153.221 4.90928 157.54 4.58911 162.119C10.1099 151.987 28.7352 145.417 42.5469 157.673Z" fill="#BDDCF1"/>
</g>
<g style="mix-blend-mode:screen" opacity="0.18">
<path d="M15.5717 174.119C15.1395 169.948 19.5011 166.093 25.2576 165.483C31.0142 164.873 36.0634 167.804 36.476 171.975C36.8886 176.145 32.5466 180.001 26.7901 180.591C21.0336 181.181 15.9843 178.27 15.5717 174.119Z" fill="#BDDCF1"/>
</g>
<path d="M43.8829 110.655C47.5303 110.472 51.1009 111.748 53.809 114.202C56.5171 116.655 58.141 120.085 58.3233 123.737C58.5057 127.39 57.2317 130.965 54.7815 133.676C52.3313 136.388 48.9056 138.014 45.2581 138.197C44.7866 138.197 44.2954 138.197 43.8239 138.197C40.1764 138.379 36.6059 137.104 33.8978 134.65C31.1897 132.197 29.5658 128.767 29.3834 125.114C29.2011 121.462 30.4751 117.887 32.9253 115.175C35.3755 112.464 38.8012 110.838 42.4486 110.655C42.9263 110.626 43.4052 110.626 43.8829 110.655ZM43.8829 105.166C43.2149 105.166 42.5665 105.166 41.9182 105.265C36.9546 105.711 32.3564 108.064 29.0885 111.831C25.8207 115.599 24.1372 120.487 24.3914 125.471C24.6456 130.454 26.8177 135.146 30.4518 138.56C34.086 141.974 38.8998 143.847 43.8829 143.784C44.5509 143.784 45.2189 143.784 45.8476 143.784C50.7674 143.284 55.3075 140.911 58.5285 137.154C61.7495 133.397 63.4051 128.543 63.1527 123.598C62.9004 118.653 60.7594 113.994 57.1727 110.586C53.586 107.177 48.828 105.279 43.8829 105.284V105.166Z" fill="#5CA9DD"/>
<g style="mix-blend-mode:multiply" opacity="0.39">
<path d="M43.8829 110.655C47.5303 110.472 51.1009 111.748 53.809 114.202C56.5171 116.655 58.141 120.085 58.3233 123.737C58.5057 127.39 57.2317 130.965 54.7815 133.676C52.3313 136.388 48.9056 138.014 45.2581 138.197C44.7866 138.197 44.2954 138.197 43.8239 138.197C40.1764 138.379 36.6059 137.104 33.8978 134.65C31.1897 132.197 29.5658 128.767 29.3834 125.114C29.2011 121.462 30.4751 117.887 32.9253 115.175C35.3755 112.464 38.8012 110.838 42.4486 110.655C42.9263 110.626 43.4052 110.626 43.8829 110.655ZM43.8829 105.166C43.2149 105.166 42.5665 105.166 41.9182 105.265C36.9546 105.711 32.3564 108.064 29.0885 111.831C25.8207 115.599 24.1372 120.487 24.3914 125.471C24.6456 130.454 26.8177 135.146 30.4518 138.56C34.086 141.974 38.8998 143.847 43.8829 143.784C44.5509 143.784 45.2189 143.784 45.8476 143.784C50.7674 143.284 55.3075 140.911 58.5285 137.154C61.7495 133.397 63.4051 128.543 63.1527 123.598C62.9004 118.653 60.7594 113.994 57.1727 110.586C53.586 107.177 48.828 105.279 43.8829 105.284V105.166Z" fill="#5CA9DD"/>
</g>
<path d="M56.0836 157.555C51.5648 153.817 29.4424 136.308 9.04892 134.38C8.15607 134.333 7.2995 134.011 6.59621 133.458C5.89293 132.906 5.37722 132.149 5.11954 131.292C4.78554 129.993 5.11954 128.518 7.49681 127.357C12.7032 125.016 41.8396 135.423 60.5434 152.42C61.1389 152.948 61.5802 153.628 61.8205 154.387C62.3313 156.138 62.5474 158.991 58.2448 158.322C57.4687 158.265 56.7223 158 56.0836 157.555Z" fill="#5CA9DD"/>
<path d="M43.8239 111.186V1" stroke="white" stroke-width="0.83" stroke-miterlimit="10" stroke-linecap="round"/>
</g>
<defs>
<filter id="filter0_d_250_192" x="0" y="0.584961" width="67.1779" height="190.415" filterUnits="userSpaceOnUse" color-interpolation-filters="sRGB">
<feFlood flood-opacity="0" result="BackgroundImageFix"/>
<feColorMatrix in="SourceAlpha" type="matrix" values="0 0 0 0 0 0 0 0 0 0 0 0 0 0 0 0 0 0 127 0" result="hardAlpha"/>
<feOffset dy="4"/>
<feGaussianBlur stdDeviation="2"/>
<feComposite in2="hardAlpha" operator="out"/>
<feColorMatrix type="matrix" values="0 0 0 0 0 0 0 0 0 0 0 0 0 0 0 0 0 0 0.25 0"/>
<feBlend mode="normal" in2="BackgroundImageFix" result="effect1_dropShadow_250_192"/>
<feBlend mode="normal" in="SourceGraphic" in2="effect1_dropShadow_250_192" result="shape"/>
</filter>
</defs>
</svg>
