<svg width="54" height="54" viewBox="0 0 54 54" fill="none" xmlns="http://www.w3.org/2000/svg">
<path d="M33.4837 1.27872C36.1984 -1.4863 40.8653 0.837874 40.2943 4.67047L38.5754 16.2083C38.32 17.9223 39.1974 19.6058 40.7486 20.3783L51.1905 25.5785C54.6591 27.3058 53.8908 32.4626 50.0694 33.1039L38.5651 35.0344C36.8561 35.3212 35.5261 36.6759 35.2707 38.3899L33.5518 49.9277C32.9808 53.7603 27.8391 54.6231 26.0483 51.1869L20.6571 40.8422C19.8563 39.3055 18.157 38.4592 16.448 38.746L4.94365 40.6766C1.12219 41.3179 -1.28732 36.6944 1.42736 33.9294L9.59977 25.6055C10.8138 24.3689 11.0935 22.4913 10.2927 20.9545L4.90155 10.6099C3.11075 7.17363 6.76333 3.45333 10.2319 5.1807L20.6738 10.3809C22.225 11.1534 24.0972 10.8392 25.3113 9.60266L33.4837 1.27872Z" fill="#022662"/>
</svg>
