<svg width="76" height="268" viewBox="0 0 76 268" fill="none" xmlns="http://www.w3.org/2000/svg">
<g filter="url(#filter0_d_250_100)">
<mask id="mask0_250_100" style="mask-type:luminance" maskUnits="userSpaceOnUse" x="6" y="168" width="66" height="55">
<path d="M62.0079 207.421C65.3064 205.095 67.8854 201.893 69.452 198.177C71.0186 194.461 71.51 190.381 70.8704 186.4C70.2308 182.419 68.4858 178.697 65.8336 175.657C63.1814 172.616 59.7284 170.38 55.8669 169.201C52.0053 168.022 47.89 167.948 43.9884 168.987C40.0868 170.027 36.5554 172.138 33.7954 175.081C31.0353 178.024 29.1573 181.681 28.3746 185.636C27.5918 189.591 27.9358 193.686 29.3675 197.456L8.79589 209.955C8.21026 210.312 7.70417 210.785 7.30896 211.344C6.91375 211.904 6.63783 212.539 6.49829 213.209C6.35875 213.88 6.35856 214.572 6.49773 215.243C6.6369 215.913 6.91247 216.548 7.30737 217.108L9.60976 220.369C10.0052 220.929 10.5116 221.402 11.0976 221.759C11.6836 222.115 12.3366 222.348 13.0163 222.442C13.696 222.536 14.3879 222.49 15.049 222.306C15.7101 222.123 16.3263 221.806 16.8596 221.374L35.5572 206.224C39.2087 209.324 43.789 211.124 48.5773 211.341C53.3657 211.558 58.0903 210.179 62.0079 207.421Z" fill="white"/>
</mask>
<g mask="url(#mask0_250_100)">
<path d="M70.8545 193.397C72.8542 181.655 64.9416 170.518 53.1812 168.521C41.4209 166.524 30.2662 174.425 28.2665 186.167C26.2668 197.909 34.1794 209.046 45.9398 211.043C57.7001 213.039 68.8548 205.139 70.8545 193.397Z" fill="#5CA9DD"/>
<path d="M9.60976 220.369L7.30737 217.108C6.91247 216.548 6.6369 215.913 6.49773 215.243C6.35856 214.572 6.35875 213.88 6.49829 213.21C6.63783 212.539 6.91375 211.904 7.30896 211.344C7.70417 210.785 8.21026 210.312 8.79589 209.955L34.1008 194.591C35.1847 193.931 36.4794 193.708 37.7223 193.966C38.9652 194.224 40.0632 194.944 40.7938 195.981C41.5245 197.016 41.8337 198.291 41.6588 199.545C41.4838 200.8 40.8377 201.941 39.8514 202.738L16.8596 221.374C16.3263 221.806 15.7101 222.123 15.049 222.307C14.3879 222.49 13.696 222.536 13.0163 222.442C12.3366 222.348 11.6836 222.115 11.0976 221.759C10.5116 221.402 10.0052 220.929 9.60976 220.369Z" fill="#5CA9DD"/>
<path d="M75.3939 191.597C75.3939 191.597 53.2374 198.697 36.2854 169.144" stroke="#FDEFF0" stroke-width="3.5" stroke-miterlimit="10"/>
<path d="M74.3551 200.824C74.3551 200.824 49.1145 208.908 29.7958 175.249" stroke="white" stroke-width="2.84" stroke-miterlimit="10"/>
<path d="M68.6259 209.485C68.6259 209.485 37.7203 223.556 23.8203 185.396" stroke="white" stroke-width="2.84" stroke-miterlimit="10"/>
<path d="M37.3991 194.655C37.0314 194.907 36.5974 195.046 36.1514 195.053C35.7053 195.06 35.267 194.936 34.8911 194.697C34.5152 194.457 34.2184 194.112 34.0378 193.704C33.8571 193.297 33.8007 192.846 33.8754 192.407C33.9502 191.968 34.1529 191.56 34.4581 191.235C34.7634 190.911 35.1578 190.683 35.5919 190.581C36.0261 190.478 36.4808 190.506 36.8993 190.66C37.3179 190.814 37.6816 191.088 37.9452 191.447C38.1248 191.692 38.2533 191.97 38.3231 192.266C38.3929 192.561 38.4027 192.867 38.3517 193.167C38.3008 193.466 38.1902 193.752 38.0266 194.007C37.863 194.263 37.6496 194.483 37.3991 194.655Z" fill="#FDEFF0"/>
<path d="M43.0105 199.969C42.6428 200.221 42.2088 200.359 41.7628 200.367C41.3168 200.374 40.8784 200.25 40.5025 200.01C40.1266 199.771 39.8298 199.426 39.6492 199.018C39.4686 198.611 39.4121 198.16 39.4869 197.721C39.5616 197.281 39.7643 196.874 40.0696 196.549C40.3749 196.225 40.7692 195.997 41.2034 195.894C41.6375 195.792 42.0923 195.82 42.5108 195.974C42.9293 196.128 43.2931 196.402 43.5567 196.761C43.7362 197.006 43.8647 197.284 43.9346 197.58C44.0044 197.875 44.0141 198.181 43.9632 198.48C43.9123 198.779 43.8017 199.065 43.638 199.321C43.4744 199.577 43.261 199.797 43.0105 199.969Z" fill="#FDEFF0"/>
<path d="M49.8106 204.214C49.5659 204.385 49.2898 204.506 48.9981 204.571C48.7063 204.636 48.4047 204.643 48.1104 204.591C47.816 204.539 47.5347 204.43 47.2826 204.27C47.0304 204.11 46.8123 203.902 46.6408 203.658C46.4692 203.413 46.3475 203.138 46.2826 202.846C46.2178 202.555 46.211 202.254 46.2627 201.96C46.3144 201.666 46.4236 201.385 46.584 201.134C46.7444 200.882 46.9529 200.664 47.1976 200.493C47.6904 200.147 48.3006 200.01 48.8941 200.114C49.4875 200.217 50.0156 200.551 50.3621 201.043C50.7086 201.535 50.8451 202.145 50.7417 202.737C50.6383 203.33 50.3033 203.857 49.8106 204.203V204.214Z" fill="#FDEFF0"/>
<path d="M57.1354 207.218C56.6426 207.564 56.0324 207.7 55.4389 207.597C54.8455 207.494 54.3174 207.16 53.9709 206.668C53.6244 206.176 53.4879 205.566 53.5913 204.974C53.6947 204.381 54.0297 203.854 54.5224 203.508C54.7664 203.337 55.0418 203.215 55.3329 203.15C55.624 203.085 55.925 203.078 56.2189 203.129C56.5127 203.18 56.7936 203.289 57.0455 203.448C57.2974 203.608 57.5153 203.815 57.6869 204.059C57.8584 204.302 57.9803 204.577 58.0454 204.868C58.1105 205.159 58.1177 205.459 58.0665 205.752C58.0153 206.046 57.9067 206.326 57.7469 206.578C57.5872 206.829 57.3794 207.047 57.1354 207.218Z" fill="#FDEFF0"/>
<path d="M72.374 182.316C69.7611 186.005 61.5903 184.733 54.1691 179.461C46.7479 174.19 42.7963 166.93 45.42 163.242C48.0436 159.553 56.193 160.825 63.6249 166.096C71.0568 171.368 74.987 178.595 72.374 182.316Z" fill="white"/>
</g>
<g style="mix-blend-mode:multiply" opacity="0.38">
<path d="M62.0079 207.421C66.2272 204.449 69.7611 200.354 70.5749 194.591C61.2369 199.103 43.9315 204.31 30.5776 179.419C26.2191 186.08 27.9539 193.8 29.3354 197.413L8.79589 209.955C8.21026 210.312 7.70417 210.785 7.30896 211.344C6.91375 211.904 6.63783 212.539 6.49829 213.21C6.35875 213.88 6.35856 214.572 6.49773 215.243C6.6369 215.913 6.91247 216.548 7.30737 217.108L9.60976 220.369C10.0052 220.929 10.5116 221.402 11.0976 221.759C11.6836 222.115 12.3366 222.348 13.0163 222.442C13.696 222.536 14.3879 222.49 15.049 222.306C15.7101 222.123 16.3263 221.806 16.8596 221.374L35.5572 206.224C39.2087 209.324 43.789 211.124 48.5773 211.341C53.3657 211.558 58.0903 210.179 62.0079 207.421Z" fill="#5CA9DD"/>
</g>
<mask id="mask1_250_100" style="mask-type:luminance" maskUnits="userSpaceOnUse" x="4" y="223" width="62" height="37">
<path d="M45.4735 259.93C48.9067 260.185 52.3429 259.474 55.3917 257.878C58.4405 256.281 60.9798 253.863 62.7211 250.898C64.4625 247.932 65.3361 244.539 65.2428 241.103C65.1494 237.667 64.0929 234.326 62.1932 231.459C60.2934 228.592 57.6266 226.315 54.4956 224.886C51.3646 223.456 47.8949 222.932 44.4806 223.373C41.0663 223.814 37.8442 225.202 35.1803 227.379C32.5163 229.557 30.5173 232.436 29.4103 235.691L9.06361 232.751C8.49311 232.683 7.91473 232.73 7.36288 232.89C6.81103 233.049 6.297 233.318 5.85139 233.68C5.40577 234.042 5.03767 234.49 4.769 234.997C4.50033 235.505 4.33658 236.06 4.28749 236.632L4.00906 240.053C3.97092 240.638 4.05347 241.224 4.2516 241.776C4.44972 242.327 4.75919 242.832 5.16082 243.259C5.56245 243.686 6.04767 244.026 6.58639 244.258C7.12511 244.49 7.70584 244.609 8.29258 244.608L28.8106 244.801C29.5185 248.809 31.5387 252.469 34.5543 255.207C37.5699 257.945 41.4104 259.606 45.4735 259.93Z" fill="white"/>
</mask>
<g mask="url(#mask1_250_100)">
<path d="M65.1866 243.365C66.1658 233.268 58.7609 224.289 48.6474 223.312C38.5339 222.334 29.5416 229.727 28.5624 239.825C27.5833 249.923 34.9881 258.901 45.1016 259.879C55.2151 260.856 64.2074 253.463 65.1866 243.365Z" fill="#5CA9DD"/>
<path d="M4.00906 240.053L4.27678 236.664C4.32507 236.084 4.49132 235.52 4.76536 235.007C5.0394 234.493 5.41547 234.041 5.87057 233.678C6.32567 233.315 6.85021 233.048 7.41213 232.894C7.97404 232.74 8.5615 232.702 9.13857 232.783L34.1115 236.397C35.1807 236.556 36.1501 237.112 36.8254 237.955C37.5007 238.798 37.8318 239.864 37.7525 240.941C37.6661 242.015 37.177 243.017 36.3829 243.746C35.5887 244.476 34.5481 244.879 33.469 244.875L8.29258 244.608C7.70584 244.609 7.12511 244.49 6.58639 244.258C6.04767 244.026 5.56245 243.686 5.16082 243.259C4.75919 242.832 4.44972 242.327 4.2516 241.775C4.05347 241.224 3.97092 240.638 4.00906 240.053Z" fill="#5CA9DD"/>
<path d="M62.9074 256.786C62.9074 256.786 44.4561 249.441 49.3929 220.808" stroke="#FDEFF0" stroke-width="2.98" stroke-miterlimit="10"/>
<path d="M57.1675 262.282C57.1675 262.282 36.1997 253.953 41.8111 221.332" stroke="white" stroke-width="2.42" stroke-miterlimit="10"/>
<path d="M48.6969 264.87C48.6969 264.87 20.7469 257.385 32.366 224.764" stroke="white" stroke-width="2.42" stroke-miterlimit="10"/>
<path d="M36.2532 238.204C35.8709 238.175 35.5056 238.034 35.2037 237.798C34.9017 237.562 34.6765 237.242 34.5567 236.879C34.4368 236.515 34.4276 236.124 34.5302 235.756C34.6328 235.387 34.8427 235.057 35.1332 234.807C35.4238 234.557 35.7819 234.399 36.1625 234.353C36.543 234.306 36.9287 234.373 37.271 234.546C37.6132 234.718 37.8966 234.988 38.0852 235.321C38.2738 235.655 38.3592 236.036 38.3307 236.418C38.3117 236.671 38.2429 236.919 38.1282 237.146C38.0135 237.372 37.8552 237.575 37.6623 237.74C37.4694 237.906 37.2457 238.032 37.0039 238.112C36.7621 238.191 36.507 238.222 36.2532 238.204Z" fill="#FDEFF0"/>
<path d="M37.0456 244.736C36.6634 244.708 36.2981 244.567 35.9962 244.331C35.6942 244.095 35.469 243.775 35.3492 243.412C35.2293 243.048 35.2201 242.657 35.3227 242.288C35.4253 241.92 35.6352 241.59 35.9257 241.34C36.2162 241.09 36.5744 240.932 36.9549 240.886C37.3355 240.839 37.7212 240.906 38.0635 241.079C38.4057 241.251 38.6891 241.521 38.8777 241.854C39.0663 242.188 39.1517 242.569 39.1231 242.951C39.1042 243.204 39.0354 243.451 38.9207 243.678C38.806 243.905 38.6477 244.107 38.4548 244.273C38.2619 244.439 38.0381 244.565 37.7963 244.645C37.5546 244.724 37.2995 244.755 37.0456 244.736Z" fill="#FDEFF0"/>
<path d="M39.2088 251.216C38.8266 251.187 38.4613 251.046 38.1594 250.81C37.8574 250.575 37.6322 250.255 37.5124 249.891C37.3925 249.528 37.3833 249.137 37.4859 248.768C37.5885 248.399 37.7984 248.069 38.0889 247.819C38.3795 247.57 38.7376 247.411 39.1181 247.365C39.4987 247.319 39.8844 247.386 40.2267 247.558C40.5689 247.731 40.8523 248.001 41.0409 248.334C41.2295 248.667 41.3149 249.049 41.2864 249.43C41.2674 249.684 41.1986 249.931 41.0839 250.158C40.9692 250.385 40.8109 250.587 40.618 250.753C40.4251 250.918 40.2013 251.045 39.9596 251.124C39.7178 251.204 39.4627 251.235 39.2088 251.216Z" fill="#FDEFF0"/>
<path d="M42.3894 257.161C42.0071 257.132 41.6419 256.991 41.3399 256.755C41.0379 256.519 40.8128 256.2 40.6929 255.836C40.573 255.472 40.5638 255.081 40.6664 254.713C40.7691 254.344 40.9789 254.014 41.2695 253.764C41.56 253.514 41.9182 253.356 42.2987 253.31C42.6792 253.263 43.065 253.331 43.4072 253.503C43.7495 253.675 44.0328 253.945 44.2214 254.279C44.4101 254.612 44.4955 254.993 44.4669 255.375C44.4258 255.886 44.1846 256.36 43.7957 256.694C43.4067 257.028 42.9014 257.196 42.3894 257.161Z" fill="#FDEFF0"/>
<path d="M65.9487 249.035C62.222 250.04 57.5637 244.758 55.5291 237.273C53.4944 229.789 54.8758 222.882 58.6239 221.877C62.372 220.872 67.0089 226.154 69.0436 233.638C71.0782 241.123 69.6754 248.03 65.9487 249.035Z" fill="white"/>
</g>
<g style="mix-blend-mode:multiply" opacity="0.38">
<path d="M45.4735 259.93C49.8641 260.261 54.4047 259.481 58.0778 256.188C49.5107 254.049 35.2895 248.126 40.0549 224.539C33.6296 226.549 30.5133 232.569 29.4532 235.691L9.10645 232.751C8.53265 232.676 7.94972 232.719 7.39286 232.876C6.83599 233.033 6.31671 233.301 5.86637 233.663C5.41603 234.026 5.04395 234.476 4.77259 234.986C4.50123 235.496 4.33621 236.056 4.28749 236.632L4.00906 240.053C3.97092 240.638 4.05347 241.224 4.2516 241.776C4.44972 242.327 4.75919 242.832 5.16082 243.259C5.56245 243.686 6.04767 244.026 6.58639 244.258C7.12511 244.49 7.70584 244.609 8.29258 244.608L28.8106 244.801C29.5185 248.809 31.5387 252.468 34.5543 255.207C37.5699 257.945 41.4104 259.606 45.4735 259.93Z" fill="#5CA9DD"/>
</g>
<path d="M24.5378 245.196C20.8647 238.492 24.6663 234.9 24.6663 234.9L27.4827 212.757C24.7948 212.361 19.7082 206.063 23.5847 200.995L22.9315 1" stroke="white" stroke-width="0.83" stroke-miterlimit="10" stroke-linecap="round"/>
<path d="M25.4266 234.633C25.4266 234.633 26.0049 227.661 29.2711 229.832C32.5373 232.002 25.4266 234.633 25.4266 234.633Z" stroke="white" stroke-width="0.83" stroke-miterlimit="10" stroke-linecap="round"/>
<path d="M24.6663 234.9C24.6663 234.9 20.3828 228.837 18.7122 233.168C17.3201 236.76 24.6663 234.9 24.6663 234.9Z" stroke="white" stroke-width="0.83" stroke-miterlimit="10" stroke-linecap="round"/>
</g>
<defs>
<filter id="filter0_d_250_100" x="0" y="0.584961" width="75.143" height="267.415" filterUnits="userSpaceOnUse" color-interpolation-filters="sRGB">
<feFlood flood-opacity="0" result="BackgroundImageFix"/>
<feColorMatrix in="SourceAlpha" type="matrix" values="0 0 0 0 0 0 0 0 0 0 0 0 0 0 0 0 0 0 127 0" result="hardAlpha"/>
<feOffset dy="4"/>
<feGaussianBlur stdDeviation="2"/>
<feComposite in2="hardAlpha" operator="out"/>
<feColorMatrix type="matrix" values="0 0 0 0 0 0 0 0 0 0 0 0 0 0 0 0 0 0 0.25 0"/>
<feBlend mode="normal" in2="BackgroundImageFix" result="effect1_dropShadow_250_100"/>
<feBlend mode="normal" in="SourceGraphic" in2="effect1_dropShadow_250_100" result="shape"/>
</filter>
</defs>
</svg>
